<?xml version="1.0" standalone="no"?>
<!DOCTYPE svg PUBLIC "-//W3C//DTD SVG 20010904//EN"
 "http://www.w3.org/TR/2001/REC-SVG-20010904/DTD/svg10.dtd">
<svg version="1.0" xmlns="http://www.w3.org/2000/svg"
 width="512.000000pt" height="512.000000pt" viewBox="0 0 512.000000 512.000000"
 preserveAspectRatio="xMidYMid meet">
<metadata>
Created by potrace 1.14, written by Peter Selinger 2001-2017
</metadata>
<g transform="translate(0.000000,512.000000) scale(0.100000,-0.100000)"
fill="#000000" stroke="none">
<path d="M2344 4843 c5 -9 0 -13 -16 -14 -27 0 -61 -5 -114 -14 -22 -4 -48 -8
-59 -10 -40 -7 -179 -46 -249 -71 -39 -14 -75 -26 -81 -27 -5 -2 -20 -9 -32
-15 -13 -7 -23 -10 -23 -6 0 4 -9 -1 -20 -11 -11 -10 -20 -15 -20 -11 0 3 -10
0 -23 -9 -13 -8 -26 -13 -29 -10 -3 3 -11 -1 -18 -10 -7 -8 -19 -15 -26 -15
-8 0 -14 -4 -14 -10 0 -5 -9 -10 -20 -10 -11 0 -20 -4 -20 -8 0 -5 -16 -14
-35 -22 -19 -8 -35 -17 -35 -21 0 -9 -40 -24 -53 -21 -5 1 -6 -1 -3 -6 2 -4
-12 -19 -32 -32 -20 -13 -58 -41 -83 -62 -26 -21 -50 -38 -53 -38 -4 0 -24
-18 -46 -40 -22 -22 -43 -40 -49 -40 -5 0 -12 -7 -15 -16 -3 -9 -11 -12 -18
-8 -7 4 -10 4 -6 -1 11 -11 -12 -36 -25 -28 -5 3 -7 2 -4 -4 8 -13 -47 -66
-58 -56 -4 5 -5 3 -1 -4 3 -6 -8 -26 -25 -45 -17 -18 -53 -63 -81 -100 -28
-37 -55 -65 -61 -61 -6 3 -7 1 -3 -5 8 -13 -23 -72 -37 -72 -4 0 -5 -4 -2 -10
3 -5 2 -10 -2 -10 -5 0 -24 -29 -43 -64 -18 -36 -38 -62 -43 -59 -6 3 -7 1 -4
-4 4 -6 -11 -49 -32 -96 -22 -47 -37 -88 -33 -91 5 -6 -23 -10 -41 -7 -5 1 -6
-3 -2 -9 3 -6 11 -8 16 -5 5 4 9 -3 9 -13 0 -11 -7 -22 -15 -26 -8 -3 -12 -12
-9 -20 3 -8 -2 -28 -11 -45 -9 -18 -13 -36 -10 -42 4 -6 -4 -8 -20 -5 -15 3
-24 2 -20 -2 3 -4 12 -7 18 -7 19 -1 10 -53 -12 -71 -11 -8 -11 -13 -2 -18 9
-6 9 -11 0 -22 -6 -8 -9 -17 -6 -20 3 -3 1 -20 -4 -37 -12 -42 -22 -98 -21
-119 0 -10 -7 -18 -16 -19 -14 0 -15 -2 -2 -7 18 -8 25 -32 9 -32 -5 0 -7 -4
-4 -10 3 -5 2 -10 -2 -10 -5 0 -14 -10 -22 -22 -14 -23 -13 -23 6 -5 20 18 20
17 18 -30 -4 -71 -4 -73 -12 -71 -5 2 -9 0 -10 -4 -6 -18 -2 -28 13 -28 8 0
12 -5 9 -10 -4 -7 -13 -7 -26 0 -10 6 -19 7 -19 3 0 -4 -6 1 -13 12 -11 14
-16 15 -22 5 -5 -8 -4 -11 2 -7 6 4 14 0 17 -9 4 -9 9 -14 13 -11 3 4 13 2 22
-3 13 -6 18 -25 20 -67 5 -106 8 -158 11 -158 1 0 3 -20 5 -45 2 -25 4 -45 5
-45 1 0 3 -11 6 -25 4 -27 -10 -59 -22 -47 -4 3 -1 13 6 22 7 9 10 18 6 22 -3
3 -6 2 -6 -3 0 -5 -9 -10 -20 -10 -22 0 -24 4 -10 26 6 10 10 11 10 3 0 -7 4
-13 8 -13 5 0 9 7 9 15 0 8 -4 12 -8 9 -17 -10 -32 73 -15 84 13 8 16 63 3 55
-4 -3 -6 -11 -3 -18 6 -17 -21 -55 -37 -51 -6 1 -9 1 -4 -1 4 -3 5 -9 1 -14
-3 -5 2 -12 11 -15 14 -6 14 -8 -1 -25 -9 -11 -12 -19 -6 -19 6 0 12 6 15 13
2 6 7 9 11 5 4 -3 -1 -21 -10 -40 -10 -18 -17 -36 -16 -40 3 -12 -16 -9 -21 2
-3 6 -4 5 -3 -2 3 -17 31 -17 32 0 3 25 5 27 14 12 5 -9 5 -19 -2 -27 -6 -7
-7 -13 -2 -13 4 0 -1 -7 -12 -15 -10 -8 -14 -14 -9 -14 6 0 19 6 29 14 14 10
23 12 32 4 14 -11 29 4 19 20 -3 5 -1 12 5 16 14 9 12 -18 -3 -48 -12 -22 -14
-23 -23 -9 -10 14 -13 14 -29 -6 -14 -16 -21 -18 -27 -9 -6 9 -8 9 -8 0 0 -23
19 -23 39 -1 23 24 27 18 10 -14 -8 -15 -8 -19 0 -14 6 4 11 2 11 -3 0 -6 5
-11 12 -11 6 0 9 3 5 6 -6 7 19 64 29 64 3 0 2 -4 -1 -10 -3 -5 -3 -16 2 -22
6 -11 11 -36 15 -85 1 -7 6 -13 11 -13 6 0 7 -3 4 -7 -4 -3 -2 -12 4 -20 6 -7
8 -13 4 -13 -4 0 -1 -8 6 -17 8 -9 9 -14 3 -10 -7 4 -15 0 -18 -9 -7 -19 1
-34 17 -34 7 0 6 4 -3 10 -8 5 -11 12 -7 16 11 11 20 -3 22 -33 1 -16 7 -27
14 -25 9 2 9 -3 1 -18 -9 -17 -7 -22 12 -30 19 -7 20 -9 4 -9 -16 -1 -16 -3 5
-22 13 -11 18 -18 12 -14 -8 4 -13 0 -13 -9 0 -10 6 -13 18 -10 9 3 5 -3 -10
-12 -16 -10 -28 -22 -28 -26 0 -12 24 -5 36 11 9 11 12 12 19 1 5 -9 4 -11 -3
-6 -7 4 -12 1 -12 -9 0 -9 4 -14 8 -11 4 2 14 1 22 -5 12 -7 12 -9 1 -9 -10 0
-11 -3 -2 -14 6 -7 8 -22 4 -32 -6 -16 -5 -17 9 -6 24 19 32 -3 12 -33 -9 -14
-12 -25 -6 -25 6 0 15 7 20 16 8 15 10 15 15 0 4 -9 3 -15 -1 -15 -19 3 -26
-2 -14 -10 12 -7 12 -12 0 -32 -7 -13 -17 -27 -23 -31 -5 -4 -8 -8 -5 -9 3 0
13 -2 23 -4 13 -2 16 1 12 15 -3 10 0 22 7 26 15 10 42 15 34 7 -3 -3 1 -15 9
-25 7 -11 11 -27 8 -36 -5 -11 -2 -14 9 -10 10 4 14 0 13 -13 -1 -10 -4 -22
-8 -25 -18 -18 -4 -25 15 -8 l22 19 -22 -29 c-12 -16 -21 -31 -19 -33 7 -7 37
9 32 17 -3 4 2 11 11 14 10 4 13 2 8 -6 -13 -20 -12 -99 0 -95 6 2 9 13 8 23
-3 15 -1 16 9 7 10 -10 9 -16 -2 -29 -12 -16 -12 -17 4 -11 46 19 51 19 29 3
-14 -11 -31 -15 -45 -11 -21 6 -21 5 -3 -9 13 -11 24 -12 36 -6 13 7 22 4 35
-10 10 -11 15 -23 12 -27 -4 -3 -7 -1 -7 6 0 7 -4 10 -9 6 -5 -3 -12 -1 -16 5
-3 5 -12 10 -18 10 -7 -1 -2 -9 11 -20 13 -11 21 -24 18 -29 -4 -5 4 -17 16
-25 12 -9 17 -16 11 -16 -7 0 -10 -7 -6 -16 5 -14 7 -14 16 2 11 21 27 34 41
34 4 0 -2 -9 -15 -19 -13 -11 -20 -23 -16 -27 4 -5 13 -2 18 6 9 13 10 12 5
-2 -3 -10 -1 -20 4 -23 6 -4 10 -1 10 4 0 6 5 11 11 11 8 0 7 -5 -2 -16 -11
-13 -11 -15 2 -14 7 1 21 2 29 1 12 -1 12 -3 2 -10 -8 -4 -29 -7 -48 -5 -30 2
-33 0 -23 -12 7 -9 20 -12 31 -8 17 5 19 3 13 -16 -5 -15 -4 -20 4 -16 6 4 9
2 5 -7 -3 -8 2 -14 11 -14 9 0 14 6 11 13 -3 7 1 14 7 17 8 3 12 -5 12 -22 0
-20 4 -25 20 -23 16 2 17 1 5 -7 -8 -5 -11 -13 -7 -17 4 -4 17 2 30 13 34 32
64 45 64 28 0 -7 -7 -11 -15 -7 -10 3 -13 1 -8 -6 5 -8 1 -10 -10 -5 -13 5
-15 3 -9 -7 5 -9 4 -11 -3 -6 -7 4 -12 3 -12 -3 0 -5 -8 -12 -18 -15 -10 -4
-19 -13 -19 -21 0 -20 4 -19 29 5 19 18 23 18 31 5 4 -9 12 -13 17 -10 4 3 19
1 32 -4 12 -6 17 -10 10 -10 -7 -1 -19 -7 -26 -13 -12 -11 -12 -16 1 -30 12
-14 13 -18 3 -18 -17 0 -4 -13 16 -16 10 -2 13 3 10 12 -3 8 -9 21 -12 29 -3
8 -1 15 5 15 6 0 10 -3 9 -7 0 -5 1 -15 5 -23 3 -8 7 -22 10 -30 3 -10 8 -7
15 12 8 20 16 25 31 21 12 -3 21 -8 21 -10 0 -3 -9 -3 -20 0 -11 3 -21 0 -21
-6 -6 -51 -5 -57 5 -54 6 2 9 13 8 23 -3 15 -1 16 9 7 9 -10 10 -15 0 -27 -8
-10 -9 -16 -1 -21 5 -3 10 0 10 7 0 8 5 6 11 -5 8 -13 7 -22 -1 -33 -8 -9 -9
-14 -2 -14 6 0 16 8 21 18 6 10 11 12 12 5 1 -7 3 -17 4 -23 1 -5 3 -13 4 -17
0 -3 9 4 20 15 20 23 41 31 22 9 -8 -11 -2 -19 29 -39 36 -24 50 -26 50 -6 0
4 -5 7 -12 5 -6 -1 -13 11 -14 28 -2 20 0 25 5 16 5 -8 7 -21 3 -29 -3 -10 -1
-13 6 -8 19 12 23 -13 6 -39 -9 -14 -12 -25 -6 -25 6 0 15 8 21 17 5 10 13 14
17 10 5 -5 2 -12 -5 -16 -8 -6 -9 -11 -3 -15 6 -3 13 -2 16 3 8 12 56 11 56
-2 0 -6 -3 -7 -7 -4 -3 4 -12 -1 -20 -11 -14 -16 -14 -16 -9 1 4 12 2 17 -6
15 -7 -3 -14 -14 -14 -26 -1 -25 24 -26 43 -2 6 8 15 12 19 7 4 -4 2 -7 -4 -7
-7 0 -12 -5 -12 -11 0 -6 6 -9 13 -6 6 2 22 -4 35 -14 23 -17 57 -16 46 2 -3
5 0 9 5 9 12 0 10 -27 -2 -47 -10 -16 5 -17 20 -2 6 6 9 19 6 28 -4 13 -3 13
5 2 6 -8 8 -20 5 -28 -3 -7 0 -13 6 -13 6 0 11 5 11 10 0 6 5 10 11 10 8 0 9
-4 0 -13 -6 -8 -8 -17 -4 -20 13 -14 42 -6 59 16 10 13 14 16 11 5 -3 -9 -3
-19 1 -21 4 -2 1 -2 -6 -1 -7 2 -15 -3 -18 -11 -3 -7 -11 -12 -18 -9 -7 3 -13
-2 -13 -11 0 -9 6 -14 13 -11 8 3 17 -2 22 -11 6 -10 12 -12 16 -5 3 6 2 13
-4 17 -13 8 -13 25 1 25 5 0 8 -4 4 -9 -3 -5 -1 -12 4 -15 5 -4 13 4 16 15 6
19 9 20 16 6 5 -9 16 -14 24 -11 8 4 15 2 15 -3 0 -5 -9 -9 -20 -10 -11 -1
-20 4 -20 10 0 7 -4 6 -10 -3 -15 -23 -12 -29 10 -25 30 6 47 -3 54 -28 l6
-22 22 25 c13 15 23 20 25 13 2 -7 10 -10 18 -7 8 3 11 12 8 20 -8 20 5 17 16
-4 10 -19 6 -21 -41 -23 -16 0 -16 -2 -2 -25 18 -27 29 -32 21 -9 -4 8 -2 17
3 20 12 7 39 -6 39 -20 0 -5 4 -11 10 -13 6 -2 8 3 5 12 -3 9 -1 16 6 16 6 0
9 -4 5 -9 -3 -5 -1 -12 5 -16 5 -3 10 2 10 12 0 15 2 16 10 3 5 -8 7 -24 3
-35 -6 -20 -5 -20 15 -1 18 15 24 16 37 6 9 -8 15 -8 15 -2 0 6 -5 14 -10 17
-17 10 -2 22 26 22 17 0 22 -2 13 -7 -6 -5 -19 -6 -27 -2 -10 4 -13 1 -8 -7 5
-7 15 -10 23 -6 10 3 22 -3 30 -15 8 -11 19 -17 25 -14 7 4 5 10 -6 16 -9 5
-16 14 -16 21 0 7 4 6 10 -3 5 -8 10 -11 10 -7 0 5 12 -6 26 -23 15 -17 29
-28 32 -25 3 2 -3 14 -13 25 -10 11 -14 20 -9 20 5 0 2 5 -6 11 -10 7 -11 9
-2 7 8 -2 14 -8 15 -13 1 -15 21 -34 29 -28 4 2 5 -4 2 -14 -4 -10 7 -3 26 16
30 33 33 34 46 17 7 -10 10 -25 7 -34 -5 -14 -4 -15 8 -4 8 7 14 20 14 30 0
11 8 17 23 16 16 -1 21 3 18 12 -3 7 -1 16 3 18 5 3 8 -5 7 -17 -1 -16 -7 -22
-24 -21 -13 1 -21 -3 -19 -10 2 -6 10 -11 18 -11 8 0 14 -8 14 -18 0 -10 8
-23 18 -28 9 -6 14 -15 11 -21 -4 -6 -2 -8 4 -4 14 8 11 48 -3 42 -6 -2 -11 8
-12 23 0 14 1 18 4 8 2 -9 8 -15 13 -12 5 3 7 13 4 23 -5 15 -4 15 6 -1 6 -9
15 -15 21 -12 5 4 9 1 9 -5 0 -7 -7 -9 -16 -6 -9 4 -14 1 -12 -6 2 -6 14 -13
26 -14 16 -3 20 0 16 14 -5 14 -4 14 5 2 5 -8 13 -11 17 -7 4 3 1 13 -6 22 -7
9 -8 15 -2 15 6 0 12 -6 15 -12 3 -10 7 -10 18 -1 12 10 18 8 29 -10 8 -12 13
-26 12 -30 -2 -5 3 -7 10 -4 7 2 13 8 12 13 -1 5 7 17 17 27 25 23 24 12 -2
-24 -11 -16 -16 -29 -11 -29 5 0 18 12 27 27 15 23 19 24 27 9 5 -9 7 -20 3
-25 -3 -5 -1 -12 5 -16 9 -6 14 7 11 28 0 4 4 7 9 7 6 0 22 11 36 25 20 20 24
21 20 7 -4 -13 -1 -18 14 -19 17 -2 18 1 10 17 -10 19 4 39 17 26 4 -3 1 -6
-5 -6 -6 0 -9 -7 -6 -15 8 -20 23 -19 47 2 11 10 17 12 13 6 -4 -7 -3 -13 3
-13 5 0 14 8 20 17 5 10 13 14 18 9 4 -5 2 -11 -5 -13 -10 -4 -9 -9 4 -24 19
-22 43 -26 25 -5 -6 7 -9 20 -5 29 3 8 1 18 -5 22 -6 3 -11 10 -11 15 0 5 14
-5 31 -22 l30 -31 22 20 c12 11 27 19 34 16 6 -2 14 1 18 6 4 7 14 5 30 -5 14
-9 23 -20 20 -24 -3 -4 2 -10 10 -14 23 -8 18 12 -10 40 -30 30 -34 45 -5 19
11 -10 20 -13 20 -7 0 7 5 12 11 12 8 0 8 -5 -1 -15 -18 -21 -3 -19 27 5 16
12 34 18 45 15 12 -4 16 -2 13 7 -5 15 32 64 42 54 4 -3 -3 -13 -15 -22 -30
-21 -28 -38 3 -18 13 8 29 13 35 9 14 -9 13 8 -2 25 -11 12 -10 12 5 1 21 -16
69 0 63 21 -1 7 -1 10 1 5 8 -12 22 3 17 17 -6 17 12 31 21 16 4 -6 16 -3 33
7 15 9 24 13 20 9 -4 -5 -3 -17 3 -28 8 -15 13 -17 25 -7 8 6 14 16 14 21 0 6
-7 5 -15 -2 -10 -9 -15 -9 -15 -1 0 6 5 11 11 11 5 0 7 6 3 13 -6 9 -5 9 8 0
8 -7 18 -10 22 -6 4 4 4 -1 0 -11 -6 -15 -4 -17 6 -11 8 5 11 4 7 -2 -4 -6 0
-14 8 -17 18 -6 17 24 0 36 -15 11 9 30 28 22 18 -7 23 -24 7 -24 -5 0 -10 5
-10 10 0 6 -6 10 -12 10 -7 -1 -2 -10 11 -20 13 -11 19 -20 13 -20 -5 0 -13
-7 -16 -16 -3 -8 -2 -12 3 -9 5 3 12 1 15 -4 3 -5 -1 -12 -9 -15 -9 -3 -18 1
-21 9 -4 8 -11 15 -16 15 -6 0 -6 -6 1 -14 10 -12 8 -14 -13 -12 -14 2 -23 0
-20 -5 2 -4 -4 -6 -16 -4 -11 2 -19 -1 -17 -8 1 -7 -3 -11 -10 -10 -8 2 -10
-4 -6 -15 5 -14 3 -13 -11 3 -10 11 -14 13 -10 5 7 -13 6 -13 -11 0 -11 8 -16
10 -11 3 5 -9 2 -11 -8 -7 -9 3 -16 1 -16 -6 0 -6 4 -9 9 -5 5 3 13 0 17 -6 5
-8 3 -9 -6 -4 -8 5 -11 4 -6 -3 4 -7 -1 -10 -14 -7 -11 2 -24 -3 -30 -13 -8
-14 -10 -14 -11 -2 -1 8 -1 18 0 23 0 4 -4 7 -10 7 -6 0 -8 -8 -5 -17 5 -15 3
-14 -10 2 -14 17 -16 17 -10 2 4 -13 2 -16 -7 -11 -9 6 -9 4 1 -8 6 -8 24 -14
37 -12 22 2 25 -1 20 -17 -5 -14 -3 -19 7 -18 7 2 23 -2 36 -9 12 -7 22 -9 23
-5 0 4 5 -1 10 -12 7 -17 8 -17 6 -2 -1 10 -4 17 -7 16 -16 -7 -46 23 -47 48
-2 25 -1 26 11 11 7 -10 16 -15 19 -11 4 3 7 1 7 -4 0 -6 -5 -14 -10 -16 -6
-3 -5 -4 2 -3 8 2 13 16 12 34 -1 24 3 30 17 29 18 -1 28 -17 11 -17 -5 0 -9
-13 -10 -30 0 -16 3 -30 8 -30 5 0 7 8 3 18 -3 9 -3 14 2 10 4 -4 14 0 22 10
13 15 13 15 8 -8 -5 -21 -4 -22 5 -7 15 23 3 42 -16 26 -20 -16 -25 -8 -9 15
13 17 15 17 39 -7 14 -15 26 -22 26 -17 0 5 -4 12 -10 15 -5 3 -10 11 -10 17
0 6 8 4 18 -6 18 -15 19 -15 17 14 -1 19 3 29 9 27 6 -2 10 -15 9 -28 -3 -23
-2 -23 9 -4 17 29 29 35 52 24 21 -10 21 -10 2 5 -24 20 -31 53 -11 53 11 0
13 -7 9 -21 -4 -15 -3 -17 4 -8 7 11 11 9 15 -8 4 -14 10 -19 18 -14 9 5 10 2
6 -9 -3 -9 -2 -19 2 -21 5 -3 8 5 7 17 -1 12 -7 21 -14 20 -7 -2 -12 1 -12 6
0 5 -3 16 -6 25 -4 11 -1 16 10 16 9 0 16 4 16 10 0 5 -6 7 -13 4 -8 -3 -19 2
-26 10 -11 13 -8 14 16 12 15 -2 29 -10 31 -18 2 -9 14 -15 29 -15 15 0 20 2
13 7 -9 5 -9 9 -1 14 6 4 14 0 17 -8 3 -9 11 -16 16 -16 6 0 5 6 -2 15 -6 8
-9 19 -5 25 4 6 2 17 -4 24 -8 10 -7 17 6 27 15 12 16 12 11 -2 -3 -9 -3 -22
2 -29 6 -9 11 -7 20 9 8 17 9 26 0 36 -9 11 -7 14 9 14 12 1 30 1 41 2 11 0
20 4 20 10 0 5 -5 8 -11 6 -6 -1 -13 3 -16 10 -2 6 3 10 13 9 21 -3 40 -45 21
-47 -7 -1 -16 -2 -22 -4 -5 -1 -16 -3 -22 -3 -7 -1 -12 -5 -11 -9 0 -5 -2 -16
-7 -26 -4 -10 -5 -20 -2 -23 7 -7 47 18 47 30 0 5 -9 1 -20 -9 -23 -21 -26 -9
-5 19 7 10 18 15 23 12 9 -6 73 39 80 57 2 4 11 7 20 8 12 0 13 2 4 6 -8 3
-27 -7 -43 -23 -16 -15 -29 -23 -29 -17 0 6 13 22 29 36 20 16 26 28 19 35 -6
6 -6 12 0 16 6 3 13 -2 17 -13 10 -32 33 -33 52 -1 9 16 19 27 23 25 3 -2 11
5 18 16 19 30 2 23 -31 -13 -27 -30 -29 -27 -11 16 3 7 -6 21 -22 31 -14 9
-23 11 -19 4 5 -7 4 -10 -1 -6 -5 3 -17 -1 -27 -8 -12 -8 -14 -15 -8 -20 6 -3
11 -1 11 6 0 7 3 10 6 6 3 -3 1 -14 -5 -24 -8 -14 -10 -14 -11 -3 0 13 -2 13
-9 1 -7 -11 -13 -12 -23 -3 -9 7 -19 8 -28 2 -10 -7 -11 -10 -2 -10 6 0 12 -5
12 -11 0 -5 -4 -8 -9 -5 -4 3 -16 -3 -26 -14 -10 -11 -22 -17 -26 -14 -5 3 -9
1 -9 -5 0 -5 5 -11 12 -13 8 -3 8 -9 -1 -24 -8 -11 -11 -13 -8 -3 3 9 -1 16
-9 16 -7 0 -11 -4 -8 -9 3 -5 0 -7 -8 -6 -7 2 -12 -3 -10 -11 3 -12 1 -12 -14
0 -16 12 -17 12 -9 -1 6 -12 6 -13 -6 -2 -12 11 -12 14 0 21 9 6 10 11 2 15
-6 4 -11 5 -11 1 0 -3 -8 -1 -18 4 -13 7 -22 7 -30 -1 -6 -6 -16 -7 -27 -1
-16 9 -16 10 -1 16 10 4 15 3 11 -3 -3 -6 -2 -10 3 -10 16 0 22 13 11 27 -9 9
-8 13 0 13 6 0 11 -5 11 -11 0 -5 5 -7 12 -3 7 4 8 3 4 -4 -4 -7 -3 -12 2 -12
10 0 26 29 24 43 -1 4 3 7 8 7 13 0 13 -17 0 -25 -5 -3 -10 -11 -10 -17 0 -7
5 -6 15 2 15 13 39 5 30 -11 -4 -5 -2 -9 2 -9 5 0 14 10 22 21 11 19 11 21 -1
16 -18 -6 -45 9 -35 20 5 4 12 1 16 -6 6 -9 11 -10 15 -2 4 6 0 14 -9 17 -13
5 -11 9 11 20 30 16 44 18 44 5 0 -5 -7 -8 -16 -7 -9 0 -19 -4 -21 -10 -7 -19
40 -8 48 12 12 29 10 34 -8 28 -15 -5 -15 -4 -4 4 12 8 12 13 2 25 -8 10 -9
17 -1 22 5 3 10 3 10 0 0 -3 10 1 21 9 12 8 28 12 35 9 17 -6 19 -24 3 -20 -6
1 -13 -3 -16 -9 -2 -6 3 -11 12 -11 8 0 15 4 15 8 0 4 7 6 16 5 9 0 19 6 22
14 5 13 3 13 -11 1 -10 -7 -17 -9 -17 -3 0 18 27 21 49 6 12 -8 27 -12 34 -8
9 6 9 4 2 -7 -6 -8 -10 -21 -9 -29 1 -8 2 -21 3 -29 1 -11 4 -10 14 3 12 16
17 17 36 6 13 -6 21 -8 18 -3 -3 5 8 22 24 37 16 16 27 31 25 34 -3 3 -19 -10
-36 -29 -25 -28 -32 -32 -40 -19 -13 20 -13 37 1 23 8 -8 19 -3 39 20 24 27
30 30 44 18 9 -8 20 -11 23 -7 11 11 12 36 1 36 -6 0 -8 -7 -4 -15 7 -18 -8
-20 -22 -2 -15 18 24 43 42 28 7 -6 16 -8 19 -4 4 3 7 1 7 -4 0 -6 -5 -13 -12
-15 -8 -3 -7 -6 4 -10 11 -5 15 0 14 15 -1 12 -7 23 -13 23 -26 3 -28 6 -8 15
17 8 17 9 -5 4 -20 -3 -26 0 -27 15 -1 11 2 20 8 20 5 0 9 -4 9 -10 0 -5 5
-10 11 -10 5 0 7 5 4 10 -3 6 -2 10 3 10 9 0 26 -29 24 -41 0 -3 6 -6 14 -6
11 0 11 4 -3 19 -9 10 -13 21 -10 25 4 4 13 -2 21 -12 10 -14 15 -15 21 -5 5
8 4 11 -2 7 -6 -4 -13 0 -17 8 -3 8 -1 15 4 15 6 0 10 5 10 10 0 6 -10 4 -23
-4 -14 -10 -27 -12 -36 -7 -8 5 -20 7 -27 4 -8 -3 -11 2 -10 14 2 10 11 19 22
21 14 2 16 1 6 -6 -11 -7 -11 -10 2 -15 19 -8 46 1 46 15 0 5 6 8 13 5 6 -2
20 0 30 5 15 8 16 12 5 26 -11 13 -11 15 4 10 9 -4 24 0 35 7 10 8 14 15 10
15 -4 0 -3 10 3 23 11 21 10 21 -4 3 -9 -10 -13 -22 -11 -26 11 -17 -22 -16
-44 1 -15 12 -18 19 -9 19 8 0 19 -5 26 -10 9 -7 9 -7 2 2 -16 20 -11 31 8 17
9 -7 14 -10 11 -6 -4 5 4 20 17 34 14 15 24 34 22 42 -3 24 12 62 23 56 5 -4
5 -14 -1 -25 -15 -28 -12 -38 4 -15 7 11 14 31 14 45 0 59 1 61 22 50 11 -6
18 -16 14 -22 -4 -7 -9 -7 -14 1 -3 7 -7 -3 -7 -21 0 -18 2 -27 5 -20 2 6 8
10 13 7 5 -4 6 2 2 11 -4 11 -3 15 5 10 6 -3 13 -2 16 3 4 5 2 12 -4 16 -6 4
-7 12 -4 18 4 7 3 9 -1 4 -5 -4 -19 0 -32 8 -13 9 -29 13 -36 10 -7 -4 -3 0 7
9 17 14 20 14 32 -2 10 -13 17 -15 31 -6 21 13 46 7 37 -8 -5 -7 -2 -8 6 -3
10 6 9 11 -5 22 -13 9 -22 10 -29 3 -5 -5 -17 -10 -25 -10 -13 1 -13 3 2 14
11 8 15 21 11 32 -5 18 -5 18 9 2 8 -10 17 -15 20 -11 4 3 7 1 7 -5 0 -7 5
-12 11 -12 8 0 8 5 -1 15 -10 12 -10 18 0 30 12 14 6 19 -21 17 -3 0 -11 9
-18 20 -11 18 -11 20 3 15 8 -3 22 0 30 8 13 13 15 13 21 -6 4 -11 9 -18 12
-16 2 3 0 14 -6 26 -7 13 -8 22 -1 26 5 3 10 1 10 -4 0 -6 5 -11 11 -11 8 0 7
6 -2 16 -11 14 -10 19 11 36 l25 21 -25 -8 c-21 -6 -23 -5 -12 6 7 8 20 14 30
14 10 0 15 6 13 15 -4 15 -11 66 -12 85 -1 23 8 49 19 53 11 3 9 -28 -2 -46
-7 -12 12 -38 21 -28 4 5 3 11 -4 13 -7 2 -9 11 -6 19 6 17 24 19 20 3 -1 -6
5 -14 13 -16 13 -4 13 -3 0 6 -8 6 -10 11 -5 11 6 0 1 7 -9 15 -11 8 -16 15
-12 15 5 0 3 7 -4 15 -7 9 -19 14 -26 11 -7 -3 -16 -1 -19 4 -4 6 -3 10 2 11
33 3 91 28 67 29 -13 0 -15 30 -2 30 5 0 13 -10 18 -22 6 -17 9 -18 9 -6 1 9
-4 20 -10 23 -6 4 -8 13 -5 21 3 8 -1 17 -9 20 -11 5 -12 11 -4 26 8 14 7 23
-3 35 -11 14 -10 15 10 9 30 -10 28 4 -4 29 -25 20 -25 22 -8 35 16 13 17 13
11 -2 -6 -17 29 -48 57 -48 9 0 13 -8 10 -23 -4 -20 -4 -20 5 -2 11 25 5 35
-18 35 -30 0 -32 12 -9 38 13 14 17 22 11 18 -7 -4 -13 -2 -13 3 0 6 -5 11
-11 11 -8 0 -8 -5 1 -15 13 -16 3 -20 -18 -6 -11 6 -10 11 3 25 9 9 21 14 26
11 5 -4 9 -1 9 5 0 6 -6 10 -12 9 -24 -3 -41 1 -34 8 11 12 40 12 53 1 8 -6
16 -8 20 -5 3 4 -6 12 -21 18 l-26 12 21 20 c11 10 18 21 15 24 -3 3 -14 -5
-25 -18 -11 -13 -20 -19 -21 -12 0 6 5 15 10 18 8 5 7 12 -2 23 -11 13 -11 15
4 10 9 -4 24 0 35 7 15 12 16 16 4 27 -12 11 -13 10 -8 -3 4 -12 -1 -16 -17
-16 -18 -1 -23 5 -21 21 4 31 6 33 15 11 8 -17 9 -16 7 9 -1 16 4 31 11 33 8
3 10 -1 6 -14 -6 -14 -4 -15 6 -6 15 14 4 35 -17 31 -9 -2 -18 2 -20 8 -4 11
32 12 43 1 11 -10 24 -8 24 4 0 5 -4 8 -9 4 -6 -3 -15 4 -21 15 -7 13 -17 19
-27 16 -9 -4 -13 -1 -10 6 2 7 11 12 20 10 18 -3 31 13 22 28 -5 8 -11 7 -21
-1 -17 -14 -18 -5 -3 23 11 20 12 20 30 -8 10 -16 19 -25 19 -21 0 4 -7 19
-16 32 -16 25 -44 24 -44 -2 0 -8 -5 -11 -11 -7 -8 5 -8 1 0 -14 9 -17 8 -23
-5 -30 -11 -6 -13 -11 -5 -16 6 -4 11 -13 11 -19 0 -7 -4 -6 -10 3 -7 12 -9
10 -7 -7 0 -13 7 -25 14 -27 19 -8 4 -36 -15 -29 -15 4 -15 3 -2 -6 11 -8 12
-11 2 -11 -7 0 -11 -4 -7 -9 6 -11 -13 -26 -22 -17 -3 3 -1 11 4 18 6 7 9 21
7 31 -2 13 2 17 13 13 13 -5 14 -4 4 8 -12 15 -11 52 2 74 5 7 3 12 -5 12 -9
0 -9 3 -2 8 6 4 10 22 9 40 -1 32 8 42 20 21 10 -16 47 22 42 43 -3 9 2 19 9
21 8 3 7 4 -3 3 -12 -1 -17 -8 -15 -24 2 -16 -1 -20 -11 -16 -16 6 -17 20 -3
42 5 8 4 18 -2 24 -6 6 -8 18 -5 27 4 9 2 13 -2 8 -16 -14 -13 -97 3 -106 9
-5 11 -11 4 -15 -15 -9 -35 21 -29 44 3 11 1 20 -5 20 -5 0 -6 5 -2 11 10 17
3 246 -10 317 -4 22 -3 31 4 27 5 -3 10 -2 10 4 0 5 -5 11 -12 13 -6 2 -11 18
-11 36 0 18 -5 32 -11 32 -6 0 -5 5 2 12 7 7 12 17 12 23 0 5 -5 3 -10 -5 -7
-12 -10 -8 -10 15 0 17 -4 37 -10 45 -6 9 -5 17 3 22 9 6 8 8 -2 8 -11 0 -11
3 -1 15 11 13 10 14 -2 10 -8 -3 -15 0 -15 7 0 10 -12 54 -28 108 -1 3 -7 18
-14 34 -9 22 -9 32 0 42 10 12 8 13 -6 8 -13 -5 -16 -4 -11 4 4 7 2 12 -3 12
-6 0 -11 5 -11 11 0 5 6 7 13 4 6 -4 5 -1 -3 7 -18 15 -50 82 -50 103 0 8 -4
15 -8 15 -5 0 -15 18 -22 40 -7 22 -16 40 -19 40 -7 0 -33 56 -31 66 1 4 -5
11 -14 16 -9 5 -16 14 -16 20 0 6 -11 26 -25 44 -14 18 -25 35 -25 38 0 3 -6
14 -14 23 -31 38 -86 113 -86 118 0 2 -18 22 -40 44 -22 22 -40 42 -40 44 0 6
-140 147 -146 147 -4 0 -25 18 -79 65 -41 36 -63 53 -84 65 -12 6 -19 15 -17
19 3 4 0 8 -7 8 -11 0 -92 48 -107 63 -5 5 -41 25 -115 63 -22 12 -43 26 -47
31 -4 6 -8 8 -8 3 0 -4 -17 1 -37 12 -51 25 -153 65 -238 92 -38 12 -77 24
-85 27 -8 2 -24 6 -35 8 -46 8 -55 10 -61 16 -3 4 -13 4 -22 1 -11 -5 -13 -3
-7 7 5 9 4 11 -4 6 -6 -4 -44 -2 -84 4 -134 21 -346 29 -462 17 -22 -2 -46 1
-54 7 -11 8 -13 8 -7 -1z m-1789 -1961 c-3 -3 -11 0 -18 7 -9 10 -8 11 6 5 10
-3 15 -9 12 -12z m4065 -272 c0 -5 -5 -10 -11 -10 -5 0 -7 5 -4 10 3 6 8 10
11 10 2 0 4 -4 4 -10z m-4100 -20 c0 -5 -5 -10 -11 -10 -5 0 -7 5 -4 10 3 6 8
10 11 10 2 0 4 -4 4 -10z m4090 -30 c0 -5 -4 -10 -10 -10 -5 0 -10 5 -10 10 0
6 5 10 10 10 6 0 10 -4 10 -10z m-4060 -74 c0 -3 -4 -8 -10 -11 -5 -3 -10 -1
-10 4 0 6 5 11 10 11 6 0 10 -2 10 -4z m4 -32 c9 -3 16 -11 16 -17 0 -8 -3 -8
-11 0 -6 6 -18 9 -27 6 -10 -4 -13 -2 -8 5 8 14 9 14 30 6z m4011 -14 c-2 -11
1 -22 6 -26 6 -4 6 -11 -2 -20 -6 -7 -14 -12 -18 -10 -4 3 -8 -5 -8 -17 -2
-17 0 -19 7 -7 8 13 11 13 22 1 8 -9 9 -11 1 -7 -6 3 -14 2 -18 -4 -4 -6 -10
-8 -15 -5 -4 3 -11 -3 -15 -13 -14 -30 -13 -39 1 -39 10 0 11 4 3 13 -13 15 8
31 22 17 7 -7 1 -21 -15 -40 -23 -27 -24 -32 -11 -43 10 -8 12 -17 6 -24 -6
-7 -6 -18 -1 -25 10 -17 2 -41 -12 -41 -6 0 -4 8 3 17 12 15 12 16 -1 8 -24
-15 -39 -14 -33 1 3 7 8 12 11 11 14 -4 12 14 -3 43 -9 17 -12 30 -8 29 19 -3
27 2 14 10 -8 6 -10 14 -5 22 10 17 15 36 17 66 0 12 5 19 10 16 5 -3 6 5 2
18 -5 19 -4 21 4 9 6 -8 11 -12 11 -8 0 3 3 14 7 24 4 12 3 15 -5 10 -19 -11
-14 5 6 20 22 17 21 17 17 -6z m5 -180 c0 -5 -5 -10 -11 -10 -5 0 -7 5 -4 10
3 6 8 10 11 10 2 0 4 -4 4 -10z m-70 -56 c11 -12 11 -14 1 -12 -7 2 -20 -8
-29 -20 -15 -23 -15 -24 4 -21 10 1 31 -4 46 -11 22 -10 25 -16 17 -27 -6 -7
-16 -13 -21 -13 -6 0 -5 7 2 15 9 10 9 15 1 15 -6 0 -11 -5 -11 -12 0 -6 -6
-4 -13 6 -13 17 -47 13 -47 -6 0 -5 4 -7 9 -3 5 3 12 1 16 -5 4 -6 10 -8 15
-5 5 3 11 1 14 -4 3 -5 -1 -12 -9 -15 -9 -3 -18 1 -22 9 -4 12 -9 13 -19 4 -8
-6 -14 -16 -14 -21 0 -7 5 -6 13 1 8 6 17 8 21 4 10 -11 36 -12 36 -2 0 5 4 9
8 9 5 0 9 -7 9 -15 0 -8 -4 -12 -9 -9 -4 3 -8 -1 -9 -8 0 -9 -2 -10 -5 -1 -4
8 -11 7 -24 -5 -14 -12 -16 -19 -9 -29 6 -7 16 -10 23 -6 7 4 6 1 -1 -9 -7 -8
-10 -18 -6 -21 3 -4 1 -7 -5 -7 -11 0 -10 -20 3 -51 3 -10 3 -19 -2 -22 -5 -3
-10 3 -11 14 -4 41 -6 49 -10 44 -3 -2 -13 0 -23 6 -15 7 -17 6 -13 -5 3 -9
11 -14 16 -13 6 1 13 -4 15 -11 4 -11 1 -12 -18 -2 -20 11 -25 10 -41 -10 -10
-12 -18 -27 -18 -34 1 -6 11 1 23 17 l23 27 -1 -27 c-1 -32 -23 -78 -26 -53
-1 8 -1 19 0 23 1 5 -3 6 -8 2 -6 -3 -7 -13 -4 -22 5 -12 3 -14 -7 -8 -9 6
-11 4 -5 -5 5 -8 1 -18 -10 -27 -11 -7 -13 -13 -6 -13 7 0 10 -4 6 -9 -3 -5
-1 -12 4 -15 5 -4 12 -2 16 4 3 5 11 10 18 10 6 0 2 -7 -9 -16 -18 -14 -18
-15 4 -4 12 6 20 15 17 21 -4 5 -2 9 4 9 20 0 19 -16 -4 -38 -16 -15 -26 -19
-30 -11 -6 8 -10 8 -15 -2 -10 -15 18 -61 31 -53 5 3 9 1 9 -5 0 -19 -19 -21
-29 -4 -11 19 -12 16 -15 -27 -1 -8 -11 -16 -24 -16 -35 -2 -57 -27 -43 -50 9
-17 10 -18 11 -1 0 9 5 17 10 17 7 0 7 -6 0 -19 -5 -11 -7 -28 -4 -38 5 -14 4
-15 -4 -4 -15 21 -42 23 -35 3 3 -10 1 -13 -4 -7 -4 6 -12 11 -18 12 -5 1 -19
4 -30 8 -14 4 -12 2 5 -9 16 -10 19 -15 10 -16 -13 0 -13 -1 0 -10 11 -7 11
-10 2 -10 -7 0 -10 -5 -6 -12 5 -7 3 -8 -7 -3 -11 7 -12 6 -2 -7 7 -8 10 -18
6 -21 -3 -4 0 -7 8 -7 10 -1 9 -3 -3 -11 -12 -7 -24 -6 -38 1 -16 9 -19 8 -13
-6 4 -11 2 -15 -4 -11 -6 4 -17 -1 -24 -11 -7 -9 -9 -14 -5 -10 5 4 15 3 23
-4 8 -6 13 -7 12 -2 -4 21 2 28 12 14 9 -13 10 -12 5 3 -5 15 -3 16 15 6 15
-8 19 -8 15 0 -4 6 -3 11 3 11 14 0 25 -20 12 -21 -20 -3 -26 -5 -50 -18 -23
-13 -23 -14 -7 -27 10 -7 15 -17 11 -23 -10 -17 -25 -13 -19 4 4 8 1 15 -6 15
-6 0 -9 -4 -5 -9 3 -5 0 -13 -6 -17 -8 -4 -9 -3 -5 4 4 7 5 12 2 12 -3 0 -10
-9 -16 -19 -7 -14 -7 -22 2 -27 7 -4 8 -3 4 4 -4 7 -4 12 1 13 4 0 18 2 31 3
13 2 25 -1 28 -6 5 -8 -9 -12 -32 -9 -6 1 -17 -6 -24 -14 -7 -8 -16 -15 -20
-15 -13 0 -4 47 11 67 12 16 12 17 -2 6 -9 -7 -19 -10 -23 -6 -4 4 -4 0 -1 -9
4 -9 2 -19 -4 -23 -6 -3 -11 -1 -11 4 0 6 -5 11 -11 11 -6 0 -9 -7 -5 -15 3
-8 -2 -19 -12 -24 -9 -6 -12 -11 -5 -11 12 0 12 -17 0 -37 -5 -7 -4 -13 2 -13
5 0 8 -8 7 -17 -3 -20 -21 -16 -21 4 0 7 -6 18 -14 25 -11 11 -13 11 -6 -1 6
-10 4 -12 -4 -6 -7 4 -5 -4 4 -19 16 -24 16 -28 1 -51 -19 -28 -33 -32 -33
-10 0 10 6 14 16 10 8 -3 12 -3 8 1 -4 4 -2 12 3 19 6 8 5 18 -5 31 -13 16
-14 16 -9 2 7 -20 -6 -24 -23 -7 -8 8 -13 8 -17 0 -4 -6 0 -11 11 -11 17 -1
17 -1 0 -11 -9 -5 -22 -7 -27 -4 -6 3 -7 -1 -4 -9 3 -9 9 -15 12 -14 20 2 28
-4 29 -22 1 -14 -3 -20 -15 -18 -10 2 -17 -4 -17 -14 0 -10 -7 -23 -15 -30
-12 -11 -12 -11 -1 5 11 14 11 17 0 17 -10 0 -10 3 -1 12 16 16 15 31 -1 25
-7 -2 -23 4 -36 14 -13 11 -19 19 -15 19 5 0 2 5 -6 11 -13 9 -12 10 3 5 15
-5 17 -2 12 15 -5 16 -3 20 6 16 8 -2 13 -10 11 -16 -4 -17 17 -51 31 -51 7 0
8 3 2 8 -5 4 -11 15 -13 26 -3 14 1 17 13 12 10 -3 3 7 -14 23 -17 16 -31 33
-31 38 1 4 9 -2 19 -14 22 -27 36 -30 27 -7 -4 10 1 26 11 37 17 20 17 20 0
14 -10 -4 -23 -7 -28 -7 -6 0 -7 -4 -4 -10 3 -5 4 -10 1 -10 -3 0 -8 5 -11 10
-6 9 31 29 63 34 7 1 17 7 24 14 9 9 6 14 -13 21 -15 6 -18 10 -8 10 9 1 22
-6 29 -14 7 -8 17 -12 22 -9 5 3 1 12 -8 19 -15 11 -16 17 -6 36 11 23 11 23
6 -6 l-6 -30 19 23 c14 17 24 21 38 16 18 -7 18 -6 7 9 -8 9 -21 13 -30 10 -9
-3 -5 4 10 16 19 15 35 20 50 16 22 -6 22 -6 4 9 -11 9 -16 16 -11 16 5 0 17
-7 27 -17 11 -9 18 -11 18 -5 0 7 -9 17 -19 24 -18 11 -18 15 -6 39 8 14 11
30 7 34 -4 5 -2 5 5 2 6 -4 14 -1 16 5 4 9 6 10 6 1 1 -6 -3 -15 -9 -18 -5 -3
-10 -11 -10 -17 0 -6 9 -3 20 7 15 14 19 15 15 4 -4 -10 1 -15 14 -16 18 -2
19 1 8 18 -6 10 -16 19 -22 19 -5 1 1 7 15 15 14 8 21 15 15 15 -5 0 -3 4 5
10 9 5 19 5 27 -2 16 -13 17 4 1 20 -8 8 -15 8 -23 2 -16 -14 -45 -2 -45 18 0
13 3 12 14 -4 14 -18 16 -18 32 -2 10 10 14 21 10 25 -5 5 -11 2 -13 -4 -3 -7
-9 -13 -14 -13 -5 0 -4 9 3 19 9 14 16 17 24 10 9 -7 16 -5 23 10 9 16 8 22
-6 30 -18 11 -16 12 27 15 14 0 31 5 39 10 11 7 12 6 6 -5 -8 -12 -6 -12 8 0
9 7 17 19 17 25 0 6 -4 5 -9 -3 -6 -9 -11 -10 -15 -2 -4 6 -2 11 5 11 9 0 9 4
-1 15 -9 11 -9 18 3 35 7 11 17 17 20 13 4 -3 7 -1 7 5 0 7 -2 12 -4 12 -2 0
-11 3 -19 6 -10 3 -14 0 -14 -11 1 -9 -8 -24 -21 -32 -20 -14 -22 -14 -16 0 3
9 11 15 16 14 6 -1 13 4 16 12 3 10 0 11 -9 5 -11 -6 -12 -5 -2 8 7 8 10 18 6
22 -4 4 1 4 11 0 14 -5 17 -4 12 5 -4 7 -3 10 5 9 6 -2 14 3 16 10 3 8 -1 10
-14 5 -17 -7 -17 -6 0 11 10 10 16 25 13 33 -3 8 -1 11 4 8 6 -3 10 -1 10 6 0
6 8 9 19 6 14 -3 18 -1 14 9 -3 8 -9 12 -13 9 -16 -10 -20 13 -5 25 8 7 15 20
15 29 0 13 2 13 9 2 6 -9 11 -10 15 -2 4 6 0 14 -9 17 -11 5 -13 9 -6 14 6 3
13 16 16 28 2 12 7 28 12 35 4 6 9 19 11 27 6 29 8 35 15 48 10 15 12 15 27
-4z m-10 -84 c0 -5 -2 -10 -4 -10 -3 0 -8 5 -11 10 -3 6 -1 10 4 10 6 0 11 -4
11 -10z m-21 -205 c-3 -23 2 -36 10 -31 5 3 11 0 14 -8 4 -9 -2 -13 -18 -13
-15 0 -22 4 -19 12 3 7 1 15 -3 18 -5 3 -8 -14 -7 -39 3 -48 -1 -53 -23 -26
-8 9 -12 12 -9 6 3 -7 -5 -19 -18 -28 -25 -16 -27 -10 -11 26 4 10 11 16 15
13 14 -9 39 35 34 60 -3 19 0 23 16 22 11 -1 19 -6 19 -12z m-169 -135 c0 -5
-2 -10 -4 -10 -3 0 -8 5 -11 10 -3 6 -1 10 4 10 6 0 11 -4 11 -10z m27 -15 c0
-8 -4 -15 -9 -15 -4 0 -8 7 -8 15 0 8 4 15 8 15 5 0 9 -7 9 -15z m-37 -5 c12
-7 10 -9 -8 -7 -12 0 -22 5 -22 9 0 11 12 10 30 -2z m-30 -60 c0 -5 -7 -7 -15
-4 -8 4 -15 8 -15 10 0 2 7 4 15 4 8 0 15 -4 15 -10z m-3335 -40 c3 -5 1 -10
-4 -10 -6 0 -11 5 -11 10 0 6 2 10 4 10 3 0 8 -4 11 -10z m25 -20 c0 -5 -5
-10 -11 -10 -5 0 -7 5 -4 10 3 6 8 10 11 10 2 0 4 -4 4 -10z m3254 -42 c-3 -4
-10 -8 -15 -8 -6 0 -7 5 -4 10 3 6 1 10 -4 10 -6 0 -11 5 -11 10 0 6 8 5 19
-2 11 -7 17 -16 15 -20z m-63 -21 c-10 -9 -11 -8 -5 6 3 10 9 15 12 12 3 -3 0
-11 -7 -18z m-3155 4 c-3 -5 1 -14 9 -21 8 -7 15 -17 15 -22 0 -6 -9 0 -19 13
-17 21 -19 39 -5 39 3 0 3 -4 0 -9z m3314 -20 c0 -5 -6 -16 -13 -23 -7 -7 -12
-26 -12 -42 0 -17 -6 -31 -15 -34 -13 -5 -13 -3 0 13 9 11 10 16 3 11 -13 -7
-18 7 -13 29 1 6 3 16 3 23 0 7 7 10 14 8 8 -3 16 1 19 9 7 17 14 20 14 6z
m-163 -7 c-3 -3 -12 -4 -19 -1 -8 3 -5 6 6 6 11 1 17 -2 13 -5z m-3112 -34
c-3 -5 -12 -10 -18 -10 -7 0 -6 4 3 10 19 12 23 12 15 0z m22 -15 c0 -8 -4
-15 -9 -15 -10 0 -11 14 -1 23 9 10 10 9 10 -8z m-31 -22 c-6 -6 -36 9 -36 18
0 5 9 4 20 -3 10 -7 18 -14 16 -15z m3084 -3 c-8 -5 -22 -9 -30 -9 -10 0 -8 3
5 9 27 12 43 12 25 0z m-3010 -14 c0 -3 -4 -8 -10 -11 -5 -3 -10 -1 -10 4 0 6
5 11 10 11 6 0 10 -2 10 -4z m2937 -38 c-3 -7 -5 -2 -5 12 0 14 2 19 5 13 2
-7 2 -19 0 -25z m-2924 7 c4 -8 1 -17 -5 -21 -7 -4 -8 -3 -4 4 4 7 2 12 -4 12
-6 0 -8 5 -5 10 8 14 12 13 18 -5z m2907 -15 c0 -5 -5 -10 -11 -10 -5 0 -7 5
-4 10 3 6 8 10 11 10 2 0 4 -4 4 -10z m-10 -24 c0 -2 -7 -7 -16 -10 -8 -3 -12
-2 -9 4 6 10 25 14 25 6z m-2872 -13 c-3 -16 15 -43 25 -36 6 4 7 1 2 -7 -6
-10 -12 -7 -26 11 -21 27 -24 39 -9 39 6 0 9 -3 8 -7z m2819 -25 c-3 -8 -6 -5
-6 6 -1 11 2 17 5 13 3 -3 4 -12 1 -19z m-2847 2 c0 -5 -4 -10 -10 -10 -5 0
-10 5 -10 10 0 6 5 10 10 10 6 0 10 -4 10 -10z m2867 -12 c-3 -8 -6 -5 -6 6
-1 11 2 17 5 13 3 -3 4 -12 1 -19z m-2760 -14 c-3 -3 -12 -4 -19 -1 -8 3 -5 6
6 6 11 1 17 -2 13 -5z m-37 -14 c0 -5 -8 -10 -17 -10 -15 0 -16 2 -3 10 19 12
20 12 20 0z m2717 -25 c0 -8 -4 -12 -9 -9 -5 3 -6 10 -3 15 9 13 12 11 12 -6z
m-2644 -15 c-3 -12 -8 -19 -11 -16 -5 6 5 36 12 36 2 0 2 -9 -1 -20z m2659
-22 c-6 -6 -12 -5 -17 3 -5 8 -4 10 3 5 8 -5 12 1 13 16 1 18 2 19 6 4 3 -10
0 -23 -5 -28z m-56 13 c-4 -5 -2 -11 4 -13 6 -2 1 -9 -11 -16 -17 -11 -20 -11
-13 0 5 7 9 16 10 21 3 15 4 17 10 17 3 0 3 -4 0 -9z m54 -36 c0 -1 -12 -2
-26 -2 -17 0 -22 2 -13 7 10 7 39 3 39 -5z m-2613 -25 c-1 -11 -5 -20 -9 -20
-3 0 -6 9 -5 20 1 11 5 20 9 20 3 0 6 -9 5 -20z m2739 5 c-11 -8 -25 -15 -30
-15 -6 1 0 7 14 15 32 19 40 18 16 0z m-152 -28 c-9 -5 -18 -6 -21 -3 -4 3 -1
6 5 6 7 0 12 8 12 18 0 14 2 15 10 2 6 -10 4 -17 -6 -23z m-87 4 c0 -11 -5
-18 -9 -15 -4 3 -5 11 -1 19 7 21 12 19 10 -4z m20 -3 c-3 -8 -6 -5 -6 6 -1
11 2 17 5 13 3 -3 4 -12 1 -19z m-2427 -2 c0 -9 -32 -36 -42 -36 -6 0 0 9 13
20 25 21 29 23 29 16z m27 -11 c0 -8 -4 -12 -9 -9 -5 3 -6 10 -3 15 9 13 12
11 12 -6z m33 -9 c0 -2 -8 -10 -17 -17 -16 -13 -17 -12 -4 4 13 16 21 21 21
13z m2330 0 c0 -3 -4 -8 -10 -11 -5 -3 -10 -1 -10 4 0 6 5 11 10 11 6 0 10 -2
10 -4z m-2316 -24 c3 -5 -1 -9 -9 -9 -8 0 -12 4 -9 9 3 4 7 8 9 8 2 0 6 -4 9
-8z m-85 -37 c2 13 31 -25 31 -39 -1 -6 -7 0 -15 14 -7 14 -17 23 -22 20 -4
-3 -9 6 -10 20 l-2 25 8 -25 c5 -14 10 -20 10 -15z m122 18 c13 -16 12 -17 -3
-4 -17 13 -22 21 -14 21 2 0 10 -8 17 -17z m2212 2 c-3 -9 -8 -14 -10 -11 -3
3 -2 9 2 15 9 16 15 13 8 -4z m58 0 c5 4 6 -2 2 -11 -4 -11 -8 -13 -11 -6 -2
7 -8 10 -13 7 -5 -4 -6 2 -2 11 4 11 8 13 11 6 2 -7 8 -10 13 -7z m-2347 -7
c-3 -4 -9 -8 -15 -8 -5 0 -9 4 -9 8 0 5 7 9 15 9 8 0 12 -4 9 -9z m40 -23 c-4
-8 -13 -15 -22 -15 -13 0 -12 3 4 15 24 18 25 18 18 0z m2286 -1 c0 -2 -7 -4
-15 -4 -8 0 -15 4 -15 10 0 5 7 7 15 4 8 -4 15 -8 15 -10z m-43 -26 c-3 -7 -5
-2 -5 12 0 14 2 19 5 13 2 -7 2 -19 0 -25z m209 17 c-2 -7 1 -18 7 -25 10 -10
8 -11 -7 -6 -19 7 -19 6 -1 -14 10 -11 16 -22 13 -25 -10 -10 -31 26 -33 54
-1 18 3 28 12 28 8 0 12 -6 9 -12z m-2395 -8 c-6 -8 -7 -18 -3 -22 4 -5 1 -5
-6 -1 -10 6 -10 11 -1 22 6 8 14 14 16 14 3 0 0 -6 -6 -13z m2159 -6 c-6 -13
-17 -17 -30 -14 -11 3 -20 8 -20 10 0 3 9 3 19 0 12 -3 22 1 25 9 3 8 8 14 11
14 3 0 1 -9 -5 -19z m260 9 c0 -5 -5 -10 -11 -10 -5 0 -7 5 -4 10 3 6 8 10 11
10 2 0 4 -4 4 -10z m-325 -9 c3 -5 2 -12 -3 -15 -5 -3 -9 1 -9 9 0 17 3 19 12
6z m-2055 -5 c0 -2 -7 -7 -16 -10 -8 -3 -12 -2 -9 4 6 10 25 14 25 6z m38 -31
c-3 -3 -9 2 -12 12 -6 14 -5 15 5 6 7 -7 10 -15 7 -18z m1989 19 c-3 -3 -12
-4 -19 -1 -8 3 -5 6 6 6 11 1 17 -2 13 -5z m269 -14 c6 6 10 3 11 -9 2 -26
-33 -57 -49 -44 -7 6 -21 9 -31 7 -18 -2 -18 -1 -2 16 10 11 22 18 29 17 6 -1
10 7 9 18 -1 18 -1 19 11 3 8 -11 16 -14 22 -8z m-2386 0 c0 -5 -7 -7 -15 -4
-8 4 -15 8 -15 10 0 2 7 4 15 4 8 0 15 -4 15 -10z m103 -4 c4 -11 1 -13 -10
-9 -12 5 -14 3 -8 -7 5 -9 4 -11 -4 -6 -9 6 -9 11 0 22 14 17 16 17 22 0z
m2092 -4 c-3 -3 -11 0 -18 7 -9 10 -8 11 6 5 10 -3 15 -9 12 -12z m-155 -6 c0
-2 -8 -10 -17 -17 -16 -13 -17 -12 -4 4 13 16 21 21 21 13z m68 -32 c0 -25 -8
-27 -12 -2 -1 7 -5 19 -9 25 -5 9 -3 11 6 7 8 -3 15 -16 15 -30z m-1917 3 c-6
-8 -7 -18 -3 -22 4 -5 1 -5 -6 -1 -10 6 -10 11 -1 22 6 8 14 14 16 14 3 0 0
-6 -6 -13z m35 -11 c1 -7 -4 -13 -12 -13 -9 0 -11 4 -4 12 5 7 8 15 5 18 -3 4
-2 5 2 2 4 -3 8 -11 9 -19z m1775 7 c13 -16 12 -17 -3 -4 -10 7 -18 15 -18 17
0 8 8 3 21 -13z m-1896 -3 c3 -6 -1 -7 -9 -4 -18 7 -21 14 -7 14 6 0 13 -4 16
-10z m1955 6 c0 -2 -7 -7 -16 -10 -8 -3 -12 -2 -9 4 6 10 25 14 25 6z m-79
-23 c13 -16 12 -17 -3 -4 -10 7 -18 15 -18 17 0 8 8 3 21 -13z m109 -3 c7 -14
7 -20 0 -20 -5 0 -10 7 -10 15 0 9 -6 12 -17 9 -15 -5 -16 -4 -3 5 19 14 18
14 30 -9z m114 -15 c10 -15 22 -23 29 -19 7 4 4 -2 -6 -13 -12 -14 -15 -23 -8
-28 16 -9 14 -25 -3 -25 -8 0 -17 -8 -20 -17 -6 -15 -8 -14 -22 5 -8 12 -21
19 -28 16 -8 -3 -17 -1 -21 5 -3 7 0 8 9 5 20 -8 20 0 1 16 -22 18 -39 -28
-18 -52 13 -15 13 -16 -4 -14 -10 2 -23 -1 -30 -6 -7 -6 -14 -5 -19 3 -5 8 -3
9 6 4 10 -6 12 -3 8 12 -3 11 -1 28 4 37 5 9 5 16 0 16 -12 0 -52 35 -52 45 0
5 9 0 19 -9 10 -10 21 -14 23 -9 3 4 4 3 2 -3 -1 -7 8 -11 22 -10 26 1 34 16
9 16 -12 0 -10 5 5 20 12 12 24 19 28 16 5 -3 14 -1 22 5 22 13 26 12 44 -16z
m-319 -3 c-3 -3 -11 0 -18 7 -9 10 -8 11 6 5 10 -3 15 -9 12 -12z m145 12 c0
-8 -19 -13 -24 -6 -3 5 1 9 9 9 8 0 15 -2 15 -3z m-1848 -21 c-20 -4 -21 -7
-10 -21 12 -15 11 -16 -4 -3 -22 16 -14 31 15 30 21 -2 21 -2 -1 -6z m55 1
c-3 -3 -12 -4 -19 -1 -8 3 -5 6 6 6 11 1 17 -2 13 -5z m1778 -12 c-3 -3 -11 0
-18 7 -9 10 -8 11 6 5 10 -3 15 -9 12 -12z m-25 -13 c0 -5 -7 -6 -15 -2 -10 3
-15 0 -13 -8 2 -8 -7 -14 -22 -16 -22 -2 -22 -1 -4 5 12 4 20 14 19 23 -2 12
3 15 16 12 10 -3 19 -9 19 -14z m274 -9 c-6 -6 -10 -3 -10 10 0 13 4 16 10 10
7 -7 7 -13 0 -20z m-2060 5 c-4 -8 -8 -15 -10 -15 -2 0 -4 7 -4 15 0 8 4 15
10 15 5 0 7 -7 4 -15z m66 -20 c0 -5 -5 -3 -10 5 -5 8 -10 20 -10 25 0 6 5 3
10 -5 5 -8 10 -19 10 -25z m1665 25 c-3 -5 -12 -10 -18 -10 -7 0 -6 4 3 10 19
12 23 12 15 0z m93 -7 c-10 -2 -18 -9 -18 -14 0 -5 -5 -9 -11 -9 -8 0 -8 5 1
15 7 8 20 14 29 14 13 -1 13 -2 -1 -6z m-1632 -15 c3 -4 -1 -5 -10 -4 -8 1
-18 5 -22 8 -3 4 1 5 10 4 8 -1 18 -5 22 -8z m1334 2 c0 -5 -5 -10 -11 -10 -5
0 -7 5 -4 10 3 6 8 10 11 10 2 0 4 -4 4 -10z m140 6 c0 -2 -7 -7 -16 -10 -8
-3 -12 -2 -9 4 6 10 25 14 25 6z m-68 -21 c19 0 14 -11 -6 -11 -12 0 -23 6
-23 13 0 6 5 9 11 5 6 -4 14 -7 18 -7z m-1495 -1 c-3 -3 -12 -4 -19 -1 -8 3
-5 6 6 6 11 1 17 -2 13 -5z m1554 -21 c-12 -20 -14 -14 -5 12 4 9 9 14 11 11
3 -2 0 -13 -6 -23z m49 17 c0 -5 -2 -10 -4 -10 -3 0 -8 5 -11 10 -3 6 -1 10 4
10 6 0 11 -4 11 -10z m-1590 -25 c-7 -8 -17 -15 -22 -15 -11 0 14 29 26 30 5
0 3 -7 -4 -15z m1283 -10 c-7 -21 -12 -19 -10 4 0 11 5 18 9 15 4 -3 5 -11 1
-19z m147 21 c0 -3 -4 -8 -10 -11 -5 -3 -10 -1 -10 4 0 6 5 11 10 11 6 0 10
-2 10 -4z m-1262 -37 c-3 -8 -7 -3 -11 10 -4 17 -3 21 5 13 5 -5 8 -16 6 -23z
m107 11 c10 -11 16 -20 13 -20 -3 0 -13 9 -23 20 -10 11 -16 20 -13 20 3 0 13
-9 23 -20z m1208 -14 c-4 -5 3 -7 15 -4 12 4 22 2 22 -4 0 -5 -10 -8 -22 -6
-14 2 -22 11 -25 28 -2 18 -1 21 6 10 5 -8 7 -18 4 -24z m32 16 c-3 -3 -11 0
-18 7 -9 10 -8 11 6 5 10 -3 15 -9 12 -12z m-1440 -3 c11 -16 1 -19 -13 -3 -7
8 -8 14 -3 14 5 0 13 -5 16 -11z m171 -1 c4 -7 4 -10 0 -6 -5 4 -19 3 -32 -2
-13 -5 -24 -7 -24 -4 0 3 25 16 47 23 1 1 5 -5 9 -11z m1159 -6 c-3 -3 -11 0
-18 7 -9 10 -8 11 6 5 10 -3 15 -9 12 -12z m28 3 c-3 -9 -8 -14 -10 -11 -3 3
-2 9 2 15 9 16 15 13 8 -4z m-1287 -10 c-1 -8 -6 -18 -11 -22 -4 -5 -5 -2 0 6
6 11 4 13 -11 8 -18 -7 -18 -7 0 8 24 18 25 18 22 0z m1044 -7 c0 -4 -4 -8 -9
-8 -6 0 -12 4 -15 8 -3 5 1 9 9 9 8 0 15 -4 15 -9z m90 -13 c5 3 11 1 14 -4 4
-5 0 -8 -6 -7 -21 3 -38 16 -38 29 0 7 5 4 11 -6 6 -9 14 -15 19 -12z m70 21
c0 -2 -7 -7 -16 -10 -8 -3 -12 -2 -9 4 6 10 25 14 25 6z m50 -10 c0 -2 -7 -7
-16 -10 -8 -3 -12 -2 -9 4 6 10 25 14 25 6z m-1221 -29 c0 -8 -2 -8 -6 1 -4
10 -8 10 -21 0 -15 -12 -16 -11 -3 4 14 19 32 15 30 -5z m88 1 c-3 -8 -6 -5
-6 6 -1 11 2 17 5 13 3 -3 4 -12 1 -19z m58 4 c-3 -3 -11 0 -18 7 -9 10 -8 11
6 5 10 -3 15 -9 12 -12z m620 8 c3 -5 1 -10 -4 -10 -6 0 -11 5 -11 10 0 6 2
10 4 10 3 0 8 -4 11 -10z m51 -2 c3 -4 -1 -5 -10 -4 -8 1 -18 5 -22 8 -3 4 1
5 10 4 8 -1 18 -5 22 -8z m60 -16 c-17 -16 -18 -16 -5 5 7 12 15 20 18 17 3
-2 -3 -12 -13 -22z m49 11 c-1 -10 2 -25 8 -33 9 -12 9 -13 -3 -3 -16 15 -24
53 -11 53 5 0 8 -8 6 -17z m125 7 c0 -5 -4 -10 -10 -10 -5 0 -10 5 -10 10 0 6
5 10 10 10 6 0 10 -4 10 -10z m185 0 c-3 -5 -12 -10 -18 -10 -7 0 -6 4 3 10
19 12 23 12 15 0z m353 -2 c-6 -26 -38 -32 -38 -7 0 6 5 7 10 4 6 -3 10 -1 10
4 0 6 5 11 10 11 6 0 9 -6 8 -12z m-1643 -8 c3 -5 1 -10 -4 -10 -6 0 -11 5
-11 10 0 6 2 10 4 10 3 0 8 -4 11 -10z m103 -15 c-3 -3 -9 2 -12 12 -6 14 -5
15 5 6 7 -7 10 -15 7 -18z m1483 12 c-5 -5 -7 -16 -4 -23 7 -19 -7 -18 -21 1
-8 11 -15 12 -26 4 -13 -9 -12 -10 3 -5 9 3 17 1 17 -4 0 -5 -11 -9 -25 -8
-29 3 -30 4 -10 24 8 9 15 13 15 9 0 -3 7 -2 16 3 21 12 47 11 35 -1z m-1117
-5 c3 -5 -1 -9 -9 -9 -8 0 -15 4 -15 9 0 4 4 8 9 8 6 0 12 -4 15 -8z m732 -4
c4 -7 3 -8 -4 -4 -7 4 -12 1 -12 -8 0 -9 -5 -16 -10 -16 -7 0 -7 6 0 20 12 23
16 24 26 8z m59 1 c11 -16 1 -19 -13 -3 -7 8 -8 14 -3 14 5 0 13 -5 16 -11z
m-1075 -9 c-13 -8 -13 -11 2 -22 12 -9 15 -18 9 -27 -13 -21 -30 -4 -27 27 5
34 4 32 19 32 8 0 7 -3 -3 -10z m314 -20 c-6 -6 -10 -3 -10 10 0 13 4 16 10
10 7 -7 7 -13 0 -20z m282 4 c1 -9 0 -13 -4 -10 -3 4 -7 14 -8 22 -1 9 0 13 4
10 3 -4 7 -14 8 -22z m300 9 c-2 -11 5 -21 18 -25 18 -6 18 -7 -4 -5 -14 1
-24 8 -22 15 1 6 -4 12 -10 12 -9 0 -8 4 2 10 19 13 19 13 16 -7z m55 -10 c-6
-11 -11 -13 -11 -5 0 7 -5 10 -12 6 -7 -4 -8 -3 -4 5 4 6 12 9 17 6 5 -4 9 -1
9 6 0 7 3 10 6 6 3 -3 1 -14 -5 -24z m-1121 13 c0 -3 -4 -8 -10 -11 -5 -3 -10
-1 -10 4 0 6 5 11 10 11 6 0 10 -2 10 -4z m112 -3 c-6 -2 -10 -9 -6 -14 3 -5
0 -9 -5 -9 -12 0 -14 13 -4 23 3 4 11 7 17 6 6 0 5 -3 -2 -6z m144 -7 c3 -8
14 -13 25 -11 10 2 22 -1 25 -7 4 -7 2 -8 -4 -4 -7 4 -12 1 -12 -6 0 -10 -2
-10 -9 0 -4 8 -11 13 -15 12 -4 0 -14 6 -22 15 -9 8 -11 15 -4 15 6 0 13 -6
16 -14z m65 -3 c13 -16 12 -17 -3 -4 -17 13 -22 21 -14 21 2 0 10 -8 17 -17z
m63 5 c-3 -4 -11 -5 -19 -1 -21 7 -19 12 4 10 11 0 18 -5 15 -9z m160 4 c3 -5
-1 -9 -9 -9 -8 0 -12 4 -9 9 3 4 7 8 9 8 2 0 6 -4 9 -8z m123 -9 c0 -9 -4 -10
-14 -2 -7 6 -13 12 -13 14 0 1 6 2 13 2 8 0 14 -6 14 -14z m283 -6 c0 -7 -4
-6 -10 3 -9 14 -14 7 -11 -13 1 -5 -3 -6 -9 -2 -8 5 -8 11 1 21 12 15 29 10
29 -9z m275 13 c-3 -5 -16 -10 -28 -9 -21 0 -21 1 -2 9 28 12 37 12 30 0z
m-1001 -9 c4 -5 -3 -7 -14 -4 -23 6 -26 13 -6 13 8 0 17 -4 20 -9z m629 -5 c4
-10 1 -13 -8 -9 -8 3 -12 9 -9 14 7 12 11 11 17 -5z m-447 -12 c-3 -9 -6 -18
-6 -20 0 -2 -5 -4 -11 -4 -8 0 -9 4 0 13 6 8 8 17 4 20 -3 4 -1 7 6 7 8 0 11
-6 7 -16z m47 -4 c-3 -11 -9 -20 -15 -20 -5 0 -4 9 2 20 6 11 12 20 14 20 2 0
2 -9 -1 -20z m192 2 c-3 -3 -11 0 -18 7 -9 10 -8 11 6 5 10 -3 15 -9 12 -12z
m375 14 c0 -2 -7 -6 -15 -10 -8 -3 -15 -1 -15 4 0 6 7 10 15 10 8 0 15 -2 15
-4z m-477 -27 c-8 -8 -13 -7 -18 2 -5 8 -4 10 3 5 7 -4 12 -2 12 5 0 7 3 9 7
6 4 -4 2 -12 -4 -18z m165 -4 c-3 -3 -9 2 -12 12 -6 14 -5 15 5 6 7 -7 10 -15
7 -18z m36 13 c-5 -8 -1 -9 12 -4 14 5 16 4 8 -4 -6 -6 -19 -8 -28 -4 -14 5
-15 9 -4 15 18 12 20 11 12 -3z m-392 -16 c-3 -10 -1 -13 6 -8 7 4 12 2 12 -3
0 -17 -18 -13 -29 7 -7 14 -6 19 4 19 7 0 11 -7 7 -15z m283 0 c-3 -3 -11 0
-18 7 -9 10 -8 11 6 5 10 -3 15 -9 12 -12z m31 2 c-4 -12 -2 -15 9 -10 8 3 15
1 15 -4 0 -11 -23 -14 -33 -4 -6 6 2 34 10 34 3 0 2 -7 -1 -16z m164 4 c0 -4
-4 -8 -9 -8 -6 0 -12 4 -15 8 -3 5 1 9 9 9 8 0 15 -4 15 -9z m200 0 c0 -9 4
-8 10 2 5 8 10 10 10 4 0 -16 -10 -23 -26 -17 -16 6 -19 23 -4 23 6 0 10 -6
10 -12z m-442 -10 c-5 -14 -38 -20 -38 -6 0 6 7 8 15 4 8 -3 15 -1 15 4 0 6 3
10 6 10 3 0 4 -5 2 -12z m197 2 c-3 -5 1 -10 9 -10 9 0 16 -5 16 -10 0 -7 -7
-7 -20 0 -17 9 -20 30 -4 30 3 0 2 -4 -1 -10z m125 -4 c0 -2 -7 -9 -15 -16
-13 -11 -14 -10 -9 4 5 14 24 23 24 12z m-205 -25 c-3 -6 -14 -10 -23 -10 -15
1 -15 2 1 6 9 2 17 9 17 15 0 6 3 9 6 5 3 -3 3 -10 -1 -16z m62 3 c-3 -3 -12
-4 -19 -1 -8 3 -5 6 6 6 11 1 17 -2 13 -5z m18 -14 c-3 -5 -12 -10 -18 -10 -7
0 -6 4 3 10 19 12 23 12 15 0z"/>
<path d="M4506 2278 c3 -5 10 -6 15 -3 13 9 11 12 -6 12 -8 0 -12 -4 -9 -9z"/>
<path d="M4500 2241 c0 -10 19 -25 25 -20 1 2 -3 10 -11 17 -8 7 -14 8 -14 3z"/>
<path d="M4455 2070 c-4 -6 -12 -7 -18 -4 -8 4 -7 2 1 -7 11 -11 7 -18 -20
-41 -25 -21 -28 -26 -13 -24 11 2 26 -3 33 -11 17 -17 33 -8 25 14 -5 12 -3
14 8 8 8 -5 7 0 -3 11 -16 16 -16 20 -2 35 9 10 11 19 5 23 -5 4 -12 2 -16 -4z
m0 -72 c2 -20 1 -20 -11 -3 -7 10 -11 22 -8 27 8 13 17 2 19 -24z"/>
<path d="M4380 1939 c-16 -30 -8 -31 13 -3 10 13 13 24 8 24 -6 0 -15 -9 -21
-21z"/>
<path d="M4409 1908 c-5 -18 -6 -38 -1 -34 7 8 12 36 6 36 -2 0 -4 -1 -5 -2z"/>
<path d="M4360 1875 c-7 -9 -8 -15 -2 -15 5 0 12 7 16 15 3 8 4 15 2 15 -2 0
-9 -7 -16 -15z"/>
<path d="M4340 1803 c0 -6 8 -17 18 -24 16 -13 16 -13 2 6 -8 11 -16 22 -17
24 -2 2 -3 0 -3 -6z"/>
<path d="M4345 1731 c-3 -6 -11 -8 -17 -5 -7 4 -8 2 -4 -4 4 -7 3 -12 -3 -12
-5 0 -12 6 -14 13 -4 9 -6 8 -6 -2 -1 -11 -4 -11 -18 0 -16 13 -17 12 -5 -3
12 -15 11 -21 -7 -44 -16 -20 -18 -30 -10 -40 9 -11 17 -9 41 11 16 14 35 22
41 18 7 -3 9 -3 5 2 -4 4 -3 14 3 22 6 7 8 13 3 13 -5 0 -2 5 6 10 11 7 12 12
4 20 -9 9 -14 9 -19 1z m6 -14 c-6 -8 -9 -16 -6 -19 3 -2 -13 -19 -34 -36 -24
-19 -42 -28 -46 -22 -4 6 -1 9 6 8 6 -2 14 3 17 11 3 9 0 11 -9 6 -8 -5 -6 1
5 13 10 12 22 19 26 17 4 -2 15 4 25 15 20 22 34 28 16 7z"/>
<path d="M4295 1680 c-3 -5 -1 -10 4 -10 6 0 11 5 11 10 0 6 -2 10 -4 10 -3 0
-8 -4 -11 -10z"/>
<path d="M4236 1595 c-3 -9 -2 -13 4 -10 6 3 10 1 10 -4 0 -7 7 -7 20 1 11 7
20 17 20 22 0 4 -6 4 -13 -3 -9 -7 -17 -7 -24 0 -7 7 -12 5 -17 -6z"/>
<path d="M4151 1519 c-1 -21 19 -37 42 -34 9 2 17 -1 17 -6 0 -5 4 -9 9 -9 12
0 9 19 -7 45 -8 15 -12 16 -13 5 -1 -8 -1 -19 0 -23 2 -12 -37 11 -42 25 -4 9
-6 7 -6 -3z"/>
<path d="M4170 1520 c0 -5 5 -10 10 -10 6 0 10 5 10 10 0 6 -4 10 -10 10 -5 0
-10 -4 -10 -10z"/>
<path d="M4101 1450 c-9 -5 -8 -10 3 -20 20 -16 10 -33 -14 -25 -20 6 -33 -16
-24 -40 6 -14 -6 -20 -29 -16 -13 2 -3 -33 13 -47 13 -11 13 -12 0 -10 -8 2
-19 8 -23 13 -5 6 -6 1 -2 -10 5 -16 4 -17 -6 -8 -10 10 -10 15 0 27 10 12 9
15 -7 13 -19 -1 -25 -24 -11 -43 5 -7 3 -11 -6 -11 -8 0 -12 4 -9 9 3 4 1 8
-4 8 -6 0 -9 -11 -8 -24 1 -16 5 -21 12 -15 6 5 15 4 23 -4 10 -9 11 -9 6 3
-6 18 31 45 40 30 4 -6 11 -8 16 -4 6 3 4 15 -5 29 -12 17 -13 26 -4 31 7 4 8
3 4 -4 -5 -8 -1 -10 9 -5 11 4 13 8 5 13 -8 5 -7 10 4 19 8 7 20 10 26 6 6 -4
9 -1 8 7 -2 7 3 12 10 10 7 -1 15 5 19 14 5 13 7 13 14 2 9 -13 9 -12 9 20 0
4 -4 8 -10 8 -21 3 -22 4 -12 17 8 9 5 12 -13 13 -12 1 -28 -2 -34 -6z m38
-38 c-5 -2 -6 -9 -2 -15 3 -7 3 -9 -2 -5 -4 4 -15 2 -24 -4 -12 -9 -11 -7 2 8
11 13 15 28 11 40 -6 18 -6 17 9 -1 9 -11 11 -22 6 -23z m-52 -27 c0 -8 -4
-12 -9 -9 -5 3 -6 10 -3 15 9 13 12 11 12 -6z"/>
<path d="M3920 1203 c0 -6 8 -17 18 -24 16 -13 16 -13 2 6 -8 11 -16 22 -17
24 -2 2 -3 0 -3 -6z"/>
<path d="M3976 1181 c-3 -5 1 -11 9 -14 9 -4 12 -1 8 9 -6 16 -10 17 -17 5z"/>
<path d="M4385 1820 c-3 -6 1 -7 9 -4 18 7 21 14 7 14 -6 0 -13 -4 -16 -10z"/>
<path d="M3816 1022 c-4 -7 -11 -10 -16 -7 -5 3 -12 0 -16 -7 -4 -7 -4 -10 1
-6 4 4 15 2 23 -5 13 -10 14 -9 7 2 -6 11 -4 13 8 8 9 -3 19 -1 23 5 4 6 3 8
-4 4 -5 -3 -12 -1 -14 6 -3 9 -6 9 -12 0z"/>
<path d="M3625 960 c-4 -6 -14 -9 -22 -8 -28 5 -25 -19 8 -57 29 -32 34 -35
44 -21 7 9 16 12 20 8 5 -4 5 -1 0 7 -7 12 -10 11 -21 -3 -7 -10 -15 -13 -18
-7 -4 6 5 18 18 27 25 15 25 17 8 40 -19 26 -28 29 -37 14z m31 -22 c10 -13
15 -20 10 -16 -5 4 -16 -2 -25 -13 -16 -20 -17 -20 -31 -3 -9 11 -10 15 -2 10
6 -4 13 -2 13 3 1 6 3 16 4 21 1 6 3 12 4 15 2 9 8 5 27 -17z"/>
<path d="M3632 945 c4 -4 3 -16 -3 -26 -5 -11 -7 -19 -5 -19 3 0 10 9 16 19 7
15 7 22 -2 27 -7 4 -10 4 -6 -1z"/>
<path d="M3547 876 c-3 -8 2 -20 11 -27 14 -11 15 -11 5 0 -6 7 -9 20 -6 27 3
8 3 14 0 14 -3 0 -7 -6 -10 -14z"/>
<path d="M2080 729 c0 -5 5 -7 10 -4 6 3 10 8 10 11 0 2 -4 4 -10 4 -5 0 -10
-5 -10 -11z"/>
<path d="M4335 3829 c-4 -6 -5 -12 -2 -15 2 -3 7 2 10 11 7 17 1 20 -8 4z"/>
<path d="M4414 3716 c1 -8 5 -18 8 -22 4 -3 5 1 4 10 -1 8 -5 18 -8 22 -4 3
-5 -1 -4 -10z"/>
<path d="M695 3701 c-3 -5 -2 -12 3 -15 5 -3 9 1 9 9 0 17 -3 19 -12 6z"/>
<path d="M674 3656 c1 -8 5 -18 8 -22 4 -3 5 1 4 10 -1 8 -5 18 -8 22 -4 3 -5
-1 -4 -10z"/>
<path d="M4436 3642 c-3 -5 1 -9 9 -9 8 0 12 4 9 9 -3 4 -7 8 -9 8 -2 0 -6 -4
-9 -8z"/>
<path d="M4430 3616 c0 -2 8 -10 18 -17 15 -13 16 -12 3 4 -13 16 -21 21 -21
13z"/>
<path d="M4465 3560 c-3 -6 1 -7 9 -4 18 7 21 14 7 14 -6 0 -13 -4 -16 -10z"/>
<path d="M4467 3499 c7 -7 15 -10 18 -7 3 3 -2 9 -12 12 -14 6 -15 5 -6 -5z"/>
<path d="M4513 3465 c0 -8 4 -12 9 -9 5 3 6 10 3 15 -9 13 -12 11 -12 -6z"/>
<path d="M595 3439 c-3 -4 2 -6 10 -5 21 3 28 13 10 13 -9 0 -18 -4 -20 -8z"/>
<path d="M536 3382 c-3 -4 4 -9 15 -9 23 -2 25 3 4 10 -8 4 -16 3 -19 -1z"/>
<path d="M589 3378 c11 -15 11 -21 0 -35 -12 -17 -12 -17 6 0 19 17 19 17 0
35 -18 16 -18 16 -6 0z"/>
<path d="M4510 3372 c9 -19 30 -23 30 -5 0 4 -3 3 -7 0 -3 -4 -12 1 -20 11
-13 15 -13 15 -3 -6z"/>
<path d="M4620 3366 c0 -2 8 -10 18 -17 15 -13 16 -12 3 4 -13 16 -21 21 -21
13z"/>
<path d="M4545 3340 c-3 -6 1 -7 9 -4 18 7 21 14 7 14 -6 0 -13 -4 -16 -10z"/>
<path d="M573 3285 c0 -8 4 -12 9 -9 5 3 6 10 3 15 -9 13 -12 11 -12 -6z"/>
<path d="M495 3260 c-3 -5 -1 -10 4 -10 6 0 11 5 11 10 0 6 -2 10 -4 10 -3 0
-8 -4 -11 -10z"/>
<path d="M553 3263 c4 -3 -1 -16 -10 -27 -18 -21 -18 -21 4 -2 20 16 23 36 6
36 -4 0 -3 -3 0 -7z"/>
<path d="M4571 3207 c-13 -21 -12 -21 5 -5 10 10 16 20 13 22 -3 3 -11 -5 -18
-17z"/>
<path d="M555 3211 c-3 -5 -2 -12 3 -15 5 -3 9 1 9 9 0 17 -3 19 -12 6z"/>
<path d="M530 3201 c0 -6 4 -13 10 -16 6 -3 7 1 4 9 -7 18 -14 21 -14 7z"/>
<path d="M4656 3178 c3 -5 10 -6 15 -3 13 9 11 12 -6 12 -8 0 -12 -4 -9 -9z"/>
<path d="M510 3118 c0 -4 4 -8 9 -8 6 0 12 4 15 8 3 5 -1 9 -9 9 -8 0 -15 -4
-15 -9z"/>
<path d="M4655 3101 c-3 -5 -2 -12 3 -15 5 -3 9 1 9 9 0 17 -3 19 -12 6z"/>
<path d="M455 3060 c3 -5 8 -10 11 -10 2 0 4 5 4 10 0 6 -5 10 -11 10 -5 0 -7
-4 -4 -10z"/>
<path d="M530 3060 c-9 -6 -10 -10 -3 -10 6 0 15 5 18 10 8 12 4 12 -15 0z"/>
<path d="M4577 3063 c-3 -5 5 -8 18 -8 13 0 21 3 18 8 -2 4 -10 7 -18 7 -8 0
-16 -3 -18 -7z"/>
<path d="M4586 3041 c-3 -5 1 -11 9 -14 9 -4 12 -1 8 9 -6 16 -10 17 -17 5z"/>
<path d="M406 3018 c3 -5 10 -6 15 -3 13 9 11 12 -6 12 -8 0 -12 -4 -9 -9z"/>
<path d="M475 3011 c1 -9 -1 -21 -6 -27 -5 -7 -3 -11 6 -11 8 0 11 5 8 10 -4
6 0 8 9 5 8 -4 15 -1 15 7 0 8 -7 11 -16 7 -13 -5 -14 -3 -4 9 10 13 10 16 -1
16 -8 0 -13 -7 -11 -16z"/>
<path d="M4580 3005 c0 -7 30 -13 34 -7 3 4 -4 9 -15 9 -10 1 -19 0 -19 -2z"/>
<path d="M534 2979 c-3 -6 -2 -15 3 -20 5 -5 9 -1 9 11 0 23 -2 24 -12 9z"/>
<path d="M4614 2978 c-3 -5 -2 -8 3 -7 21 4 25 -2 8 -14 -14 -11 -15 -16 -5
-22 9 -5 11 -4 6 3 -7 11 6 17 28 13 5 -1 4 4 -2 12 -7 8 -10 16 -7 19 3 2 -2
5 -10 5 -9 0 -18 -4 -21 -9z"/>
<path d="M4686 2982 c-3 -5 1 -9 9 -9 8 0 12 4 9 9 -3 4 -7 8 -9 8 -2 0 -6 -4
-9 -8z"/>
<path d="M500 2960 c-9 -6 -10 -10 -3 -10 6 0 15 5 18 10 8 12 4 12 -15 0z"/>
<path d="M4585 2960 c3 -5 8 -10 11 -10 2 0 4 5 4 10 0 6 -5 10 -11 10 -5 0
-7 -4 -4 -10z"/>
<path d="M467 2939 c7 -9 10 -18 7 -22 -3 -3 5 -10 18 -17 20 -10 21 -10 6 3
-10 8 -15 16 -13 19 3 3 -3 11 -12 19 -16 12 -17 12 -6 -2z"/>
<path d="M510 2940 c-11 -7 -11 -10 -2 -10 7 0 10 -5 6 -11 -4 -8 0 -8 15 0
25 14 28 23 4 14 -11 -4 -14 -3 -9 5 9 14 6 15 -14 2z"/>
<path d="M4577 2929 c4 -13 8 -18 11 -10 2 7 -1 18 -6 23 -8 8 -9 4 -5 -13z"/>
<path d="M4649 2923 c-13 -16 -12 -17 4 -4 16 13 21 21 13 21 -2 0 -10 -8 -17
-17z"/>
<path d="M436 2922 c-3 -5 1 -9 9 -9 8 0 12 4 9 9 -3 4 -7 8 -9 8 -2 0 -6 -4
-9 -8z"/>
<path d="M4607 2919 c7 -7 15 -10 18 -7 3 3 -2 9 -12 12 -14 6 -15 5 -6 -5z"/>
<path d="M4671 2907 c-13 -21 -12 -21 5 -5 10 10 16 20 13 22 -3 3 -11 -5 -18
-17z"/>
<path d="M4585 2889 c-11 -16 -1 -19 13 -3 7 8 8 14 3 14 -5 0 -13 -5 -16 -11z"/>
<path d="M4628 2893 c7 -3 16 -2 19 1 4 3 -2 6 -13 5 -11 0 -14 -3 -6 -6z"/>
<path d="M4615 2861 c-3 -5 0 -13 6 -17 7 -4 9 -3 5 4 -3 6 2 13 11 15 16 4
16 5 1 6 -9 0 -19 -3 -23 -8z"/>
<path d="M4675 2850 c10 -11 20 -20 23 -20 3 0 -3 9 -13 20 -10 11 -20 20 -23
20 -3 0 3 -9 13 -20z"/>
<path d="M4586 2844 c-4 -9 -4 -19 -1 -22 3 -3 5 0 5 7 0 7 4 9 10 6 6 -3 7 1
4 9 -8 20 -10 20 -18 0z"/>
<path d="M508 2833 c7 -3 16 -2 19 1 4 3 -2 6 -13 5 -11 0 -14 -3 -6 -6z"/>
<path d="M4616 2822 c-10 -17 2 -47 20 -49 14 -1 15 -1 2 3 -11 4 -15 13 -12
30 4 24 0 31 -10 16z"/>
<path d="M4674 2813 c2 -10 0 -23 -5 -29 -5 -6 -4 -11 5 -11 13 0 16 40 4 52
-4 4 -5 -1 -4 -12z"/>
<path d="M462 2800 c0 -14 2 -19 5 -12 2 6 2 18 0 25 -3 6 -5 1 -5 -13z"/>
<path d="M523 2800 c-5 -20 -6 -20 -27 -3 -15 13 -17 13 -8 2 6 -9 9 -19 5
-22 -3 -4 0 -13 7 -22 7 -8 9 -15 5 -15 -5 0 0 -10 11 -21 14 -16 15 -23 7
-26 -7 -3 -13 -9 -13 -14 0 -5 8 -4 18 2 10 7 19 18 19 25 0 7 -4 11 -8 9 -3
-3 -12 2 -18 9 -8 10 -9 16 -1 21 5 3 10 1 10 -6 0 -7 3 -10 6 -6 3 3 1 13 -4
23 -6 11 -7 27 -1 41 5 13 6 23 3 23 -3 0 -8 -9 -11 -20z m-3 -41 c0 -6 -4 -7
-10 -4 -5 3 -10 11 -10 16 0 6 5 7 10 4 6 -3 10 -11 10 -16z"/>
<path d="M431 2787 c-13 -21 -12 -21 5 -5 10 10 16 20 13 22 -3 3 -11 -5 -18
-17z"/>
<path d="M379 2788 c-5 -18 -6 -38 -1 -34 7 8 12 36 6 36 -2 0 -4 -1 -5 -2z"/>
<path d="M4734 2778 c-4 -7 -4 -10 1 -6 4 4 15 2 24 -5 14 -11 14 -10 2 6 -16
20 -18 21 -27 5z"/>
<path d="M435 2759 c-3 -4 2 -6 10 -5 21 3 28 13 10 13 -9 0 -18 -4 -20 -8z"/>
<path d="M470 2740 c0 -5 5 -10 10 -10 6 0 10 5 10 10 0 6 -4 10 -10 10 -5 0
-10 -4 -10 -10z"/>
<path d="M416 2713 c-6 -14 -5 -15 5 -6 7 7 10 15 7 18 -3 3 -9 -2 -12 -12z"/>
<path d="M494 2712 c5 -8 -1 -12 -16 -13 -18 -1 -19 -2 -4 -6 23 -6 43 12 25
22 -8 5 -10 4 -5 -3z"/>
<path d="M4670 2706 c0 -2 7 -7 16 -10 8 -3 12 -2 9 4 -6 10 -25 14 -25 6z"/>
<path d="M416 2682 c-3 -4 4 -9 15 -9 23 -2 25 3 4 10 -8 4 -16 3 -19 -1z"/>
<path d="M4630 2685 c0 -5 5 -17 10 -25 5 -8 10 -10 10 -5 0 6 -5 17 -10 25
-5 8 -10 11 -10 5z"/>
<path d="M4735 2669 c-4 -6 -5 -12 -2 -15 2 -3 7 2 10 11 7 17 1 20 -8 4z"/>
<path d="M475 2660 c-3 -6 1 -7 9 -4 18 7 21 14 7 14 -6 0 -13 -4 -16 -10z"/>
<path d="M510 2651 c0 -7 -4 -9 -10 -6 -6 4 -7 -1 -3 -11 6 -15 7 -15 15 1 6
9 7 19 4 22 -3 4 -6 1 -6 -6z"/>
<path d="M460 2636 c0 -2 7 -7 16 -10 8 -3 12 -2 9 4 -6 10 -25 14 -25 6z"/>
<path d="M546 2611 c-5 -8 0 -50 7 -58 3 -2 4 12 3 32 -1 37 -2 40 -10 26z"/>
<path d="M447 2599 c7 -7 15 -10 18 -7 3 3 -2 9 -12 12 -14 6 -15 5 -6 -5z"/>
<path d="M4696 2602 c-3 -4 4 -9 15 -9 23 -2 25 3 4 10 -8 4 -16 3 -19 -1z"/>
<path d="M375 2580 c3 -5 8 -10 11 -10 2 0 4 5 4 10 0 6 -5 10 -11 10 -5 0 -7
-4 -4 -10z"/>
<path d="M4630 2581 c0 -6 4 -13 10 -16 6 -3 7 1 4 9 -7 18 -14 21 -14 7z"/>
<path d="M470 2571 c13 -10 13 -12 0 -22 -13 -9 -13 -10 0 -6 8 2 15 10 15 17
0 7 -7 15 -15 17 -13 4 -13 3 0 -6z"/>
<path d="M373 2535 c0 -8 4 -12 9 -9 5 3 6 10 3 15 -9 13 -12 11 -12 -6z"/>
<path d="M4726 2542 c-3 -5 1 -9 9 -9 8 0 12 4 9 9 -3 4 -7 8 -9 8 -2 0 -6 -4
-9 -8z"/>
<path d="M477 2519 c7 -7 15 -10 18 -7 3 3 -2 9 -12 12 -14 6 -15 5 -6 -5z"/>
<path d="M376 2502 c-3 -5 1 -9 9 -9 8 0 12 4 9 9 -3 4 -7 8 -9 8 -2 0 -6 -4
-9 -8z"/>
<path d="M4651 2474 c0 -11 3 -14 6 -6 3 7 2 16 -1 19 -3 4 -6 -2 -5 -13z"/>
<path d="M4673 2467 c0 -8 6 -14 14 -14 9 0 10 4 2 14 -6 7 -12 13 -14 13 -1
0 -2 -6 -2 -13z"/>
<path d="M399 2468 c-5 -18 -6 -38 -1 -34 7 8 12 36 6 36 -2 0 -4 -1 -5 -2z"/>
<path d="M419 2433 c-13 -17 -13 -17 6 -3 11 8 22 16 24 17 2 2 0 3 -6 3 -6 0
-17 -8 -24 -17z"/>
<path d="M470 2430 c-9 -6 -10 -10 -3 -10 6 0 15 5 18 10 8 12 4 12 -15 0z"/>
<path d="M4630 2420 c0 -5 5 -10 10 -10 6 0 10 5 10 10 0 6 -4 10 -10 10 -5 0
-10 -4 -10 -10z"/>
<path d="M4726 2418 c3 -5 10 -6 15 -3 13 9 11 12 -6 12 -8 0 -12 -4 -9 -9z"/>
<path d="M415 2400 c-3 -5 -1 -10 4 -10 6 0 11 5 11 10 0 6 -2 10 -4 10 -3 0
-8 -4 -11 -10z"/>
<path d="M4630 2390 c0 -5 5 -10 11 -10 5 0 7 5 4 10 -3 6 -8 10 -11 10 -2 0
-4 -4 -4 -10z"/>
<path d="M584 2373 c4 -26 -33 -45 -52 -27 -7 8 -18 14 -24 14 -6 0 0 -9 13
-20 l24 -20 -24 -20 c-13 -11 -19 -20 -13 -20 6 0 18 7 26 16 9 8 17 12 17 7
4 -29 4 -40 -4 -56 -5 -11 -2 -25 8 -39 8 -13 15 -17 15 -11 0 7 -4 15 -10 18
-5 3 -10 11 -10 17 0 7 4 7 13 -1 8 -6 16 -8 19 -5 3 3 5 -6 4 -20 0 -15 -8
-29 -19 -32 -9 -3 -15 -9 -12 -14 3 -5 1 -11 -5 -15 -5 -3 -10 0 -10 8 0 8 -7
17 -15 21 -13 5 -13 2 1 -19 10 -15 21 -22 28 -17 6 4 22 7 36 8 14 1 33 4 42
9 16 6 16 8 -3 24 -17 13 -19 22 -12 37 11 23 11 33 -5 62 -7 12 -10 22 -6 22
3 0 2 6 -3 13 -6 6 -9 25 -8 40 1 15 -1 30 -6 32 -4 3 -6 -3 -5 -12z m1 -42
c-3 -5 -1 -12 4 -16 5 -3 8 -14 6 -24 -2 -11 3 -22 10 -25 14 -5 14 -24 0 -57
-3 -9 1 -21 9 -29 9 -7 13 -16 10 -22 -3 -5 -12 -4 -20 3 -11 9 -14 9 -14 0 0
-7 -5 -9 -11 -5 -8 5 -7 9 3 15 9 5 14 21 13 41 -1 18 2 36 7 39 5 3 3 9 -6
12 -9 4 -15 3 -15 -1 3 -18 -2 -33 -9 -28 -5 3 -8 19 -7 36 1 17 -2 33 -7 36
-14 9 -9 22 10 27 9 3 18 5 20 6 2 0 1 -3 -3 -8z"/>
<path d="M570 2279 c0 -5 5 -7 10 -4 6 3 10 8 10 11 0 2 -4 4 -10 4 -5 0 -10
-5 -10 -11z"/>
<path d="M436 2359 c3 -5 9 -7 14 -4 4 3 11 0 13 -5 3 -6 4 -5 3 1 -1 7 -10
13 -19 15 -9 1 -15 -2 -11 -7z"/>
<path d="M4610 2366 c0 -2 7 -7 16 -10 8 -3 12 -2 9 4 -6 10 -25 14 -25 6z"/>
<path d="M4670 2359 c0 -5 5 -7 10 -4 6 3 10 8 10 11 0 2 -4 4 -10 4 -5 0 -10
-5 -10 -11z"/>
<path d="M414 2339 c-4 -8 -3 -10 5 -5 6 4 14 1 17 -8 8 -20 31 -28 31 -10 0
8 -3 12 -5 9 -3 -3 -13 2 -23 11 -13 12 -19 12 -25 3z"/>
<path d="M4736 2342 c-3 -5 1 -9 9 -9 8 0 12 4 9 9 -3 4 -7 8 -9 8 -2 0 -6 -4
-9 -8z"/>
<path d="M500 2320 c0 -5 5 -10 10 -10 6 0 10 5 10 10 0 6 -4 10 -10 10 -5 0
-10 -4 -10 -10z"/>
<path d="M4611 2313 c-1 -17 16 -26 24 -12 4 5 14 8 24 4 12 -5 13 -4 4 6 -9
9 -15 9 -27 0 -11 -9 -15 -9 -19 1 -4 9 -6 9 -6 1z"/>
<path d="M479 2303 c0 -5 -2 -16 -4 -26 -2 -11 -1 -16 3 -13 8 8 14 46 7 46
-3 0 -5 -3 -6 -7z"/>
<path d="M4637 2283 c-10 -9 -9 -23 1 -23 5 0 9 7 9 15 0 17 -1 18 -10 8z"/>
<path d="M416 2262 c-3 -4 4 -9 15 -9 23 -2 25 3 4 10 -8 4 -16 3 -19 -1z"/>
<path d="M497 2263 c-4 -3 1 -15 10 -26 17 -20 17 -20 -2 -14 -20 7 -20 7 -1
-8 11 -8 24 -15 29 -15 4 0 5 -4 2 -10 -3 -5 -1 -10 4 -10 16 0 13 20 -4 26
-8 4 -13 10 -10 14 3 5 -1 15 -9 23 -8 8 -12 17 -9 21 4 3 4 6 1 6 -2 0 -8 -3
-11 -7z"/>
<path d="M525 2260 c3 -5 8 -10 11 -10 2 0 4 5 4 10 0 6 -5 10 -11 10 -5 0 -7
-4 -4 -10z"/>
<path d="M4630 2236 c7 -7 13 -7 20 0 6 6 3 10 -10 10 -13 0 -16 -4 -10 -10z"/>
<path d="M4656 2213 c-6 -14 -5 -15 5 -6 7 7 10 15 7 18 -3 3 -9 -2 -12 -12z"/>
<path d="M487 2199 c7 -7 15 -10 18 -7 3 3 -2 9 -12 12 -14 6 -15 5 -6 -5z"/>
<path d="M4581 2194 c0 -11 3 -14 6 -6 3 7 2 16 -1 19 -3 4 -6 -2 -5 -13z"/>
<path d="M4630 2181 c0 -6 4 -13 10 -16 6 -3 7 1 4 9 -7 18 -14 21 -14 7z"/>
<path d="M439 2153 c-13 -16 -12 -17 4 -4 9 7 17 15 17 17 0 8 -8 3 -21 -13z"/>
<path d="M470 2160 c0 -5 5 -10 11 -10 5 0 7 5 4 10 -3 6 -8 10 -11 10 -2 0
-4 -4 -4 -10z"/>
<path d="M4557 2163 c-3 -3 -2 -13 3 -22 5 -9 11 -24 14 -34 3 -10 10 -16 15
-13 5 4 11 -2 13 -11 3 -15 5 -14 10 4 5 17 2 21 -13 18 -13 -3 -19 2 -19 14
0 9 -6 23 -12 30 -11 11 -10 13 5 7 10 -3 21 -6 23 -6 3 0 2 -5 -2 -12 -4 -7
-3 -8 4 -4 16 10 5 32 -17 33 -11 1 -21 -1 -24 -4z"/>
<path d="M630 2140 c0 -5 0 -13 -1 -17 0 -12 -48 -34 -59 -28 -19 11 -10 22
15 20 14 -2 25 0 25 5 0 11 -49 10 -56 -2 -3 -5 -1 -15 5 -22 6 -7 8 -16 4
-20 -4 -4 1 -4 12 0 18 7 18 6 6 -9 -7 -9 -17 -14 -22 -11 -5 3 -9 0 -9 -5 0
-16 16 -13 34 4 9 9 17 11 21 5 3 -5 -3 -15 -15 -22 -11 -7 -20 -17 -20 -22 0
-4 6 -3 14 3 11 10 17 6 29 -19 16 -31 8 -41 -12 -17 -6 8 -7 18 -3 22 4 5 1
5 -6 1 -10 -6 -10 -11 -2 -21 6 -7 7 -15 3 -17 -4 -3 -2 -3 5 -1 8 1 12 -3 10
-9 -3 -7 -11 -13 -19 -13 -7 0 -15 -8 -17 -17 -2 -10 1 -18 7 -18 6 0 8 8 4
18 -3 9 -3 14 2 10 4 -4 14 -3 22 4 23 19 40 -6 24 -36 -9 -16 -10 -29 -3 -42
5 -11 8 -32 7 -47 -2 -16 -1 -26 2 -23 3 3 12 -2 19 -12 7 -9 14 -12 14 -6 0
6 -7 17 -15 24 -8 7 -15 17 -15 23 0 6 11 0 25 -13 14 -13 23 -30 20 -38 -3
-8 2 -23 12 -34 16 -18 16 -19 -5 -25 -12 -3 -22 -10 -22 -15 0 -10 16 -3 43
20 9 8 17 11 17 6 -1 -14 -26 -44 -33 -38 -3 3 -4 -1 -3 -10 3 -25 13 -28 38
-15 12 7 26 12 31 11 4 -1 7 2 7 8 0 5 -6 10 -12 10 -9 0 -8 4 2 10 8 5 11 10
6 10 -5 0 -3 6 3 13 6 8 8 17 4 20 -3 4 -1 7 5 7 7 0 12 -4 12 -8 0 -18 29 -7
39 14 8 18 6 28 -9 46 -19 23 -22 21 -24 -17 -1 -11 -7 -19 -13 -18 -7 2 -13
-2 -13 -9 0 -6 -6 -3 -14 8 -10 13 -11 23 -4 31 6 7 7 13 2 13 -4 0 1 6 11 14
18 13 17 14 -14 31 -20 10 -30 12 -26 4 5 -7 4 -10 -3 -6 -12 8 -9 44 4 37 5
-3 8 -8 7 -12 -5 -14 10 -8 23 10 17 22 18 38 1 24 -7 -6 -18 -7 -26 -3 -9 6
-10 11 -2 15 7 5 8 13 1 25 -5 10 -7 21 -3 24 3 4 -4 5 -16 2 -11 -2 -21 0
-21 6 0 5 -3 8 -7 8 -31 -5 -36 3 -14 21 13 11 19 20 14 20 -5 0 -10 7 -10 15
0 8 5 15 11 15 6 0 4 5 -4 10 -8 5 -16 14 -16 20 -1 5 -3 12 -4 15 -1 3 -4 10
-5 15 -1 6 -3 15 -4 20 0 6 -5 10 -11 10 -5 0 -10 -4 -10 -10z m26 -48 c1 -7
3 -13 4 -14 11 -13 4 -61 -10 -71 -13 -9 -14 -15 -6 -22 12 -11 33 -17 54 -18
15 0 5 -12 -11 -12 -7 -1 -15 3 -18 8 -3 5 -9 2 -12 -6 -4 -11 0 -15 14 -12
10 2 19 -1 19 -7 0 -7 4 -7 13 1 16 13 30 3 19 -13 -4 -6 -7 -14 -8 -18 -1 -5
-2 -9 -4 -10 -7 -10 -7 -39 1 -44 5 -3 7 -10 4 -15 -4 -5 -2 -9 4 -9 5 0 11 5
13 11 2 5 11 7 22 3 16 -6 17 -8 2 -16 -9 -5 -14 -13 -11 -18 3 -5 1 -11 -5
-15 -7 -4 -3 -17 10 -35 11 -15 16 -30 10 -32 -5 -1 -11 -13 -13 -26 -3 -23
-22 -42 -42 -42 -5 1 -1 7 9 15 11 8 16 15 12 15 -5 0 -3 6 3 14 9 11 10 20 1
35 -13 25 -25 28 -16 5 5 -14 4 -15 -9 -4 -9 7 -13 20 -10 28 3 8 0 21 -7 30
-7 8 -13 24 -13 35 0 11 -6 21 -13 23 -7 1 -8 0 -2 -3 12 -6 13 -23 1 -23 -5
0 -14 14 -21 30 -10 24 -10 33 0 45 7 9 9 22 4 32 -4 10 -8 23 -9 28 0 6 -4
16 -8 23 -9 13 0 35 12 28 4 -3 7 6 7 19 0 13 -4 21 -8 19 -5 -3 -6 -9 -3 -14
7 -12 -13 -23 -26 -14 -8 5 -6 12 7 23 11 9 17 15 15 14 -2 -1 -13 2 -24 8
-19 11 -19 11 4 24 27 15 43 14 45 -3z m158 -325 c-3 -9 -11 -17 -16 -17 -6 0
-5 6 2 15 6 8 8 20 4 27 -5 10 -4 10 5 2 6 -6 9 -18 5 -27z"/>
<path d="M625 2089 c-11 -16 -1 -19 13 -3 7 8 8 14 3 14 -5 0 -13 -5 -16 -11z"/>
<path d="M705 1931 c-3 -6 -15 -8 -27 -6 -11 3 -18 2 -15 -2 4 -3 -1 -12 -11
-20 -16 -12 -16 -13 1 -7 13 5 16 2 11 -10 -3 -9 -1 -16 5 -16 6 0 14 0 19 0
4 0 8 5 8 10 1 6 3 12 4 15 1 3 3 8 4 13 1 4 5 13 9 20 5 6 6 12 3 12 -3 0 -7
-4 -11 -9z m-14 -35 c-6 -7 -7 -17 -3 -21 4 -5 2 -5 -5 -2 -9 6 -10 18 -4 45
1 2 6 0 11 -3 8 -5 8 -11 1 -19z"/>
<path d="M695 1829 c5 -16 4 -19 -5 -14 -8 5 -11 4 -7 -3 4 -5 17 -8 30 -5 18
4 19 3 7 -7 -13 -10 -13 -11 0 -7 8 2 15 8 15 13 0 5 4 16 10 24 7 13 6 13 -8
2 -17 -14 -42 -7 -32 9 4 5 1 9 -5 9 -7 0 -9 -8 -5 -21z"/>
<path d="M704 1767 c-4 -7 -3 -9 1 -4 5 4 17 -1 27 -10 17 -15 18 -15 13 -1
-9 22 -33 30 -41 15z"/>
<path d="M4670 2145 c0 -7 30 -13 34 -7 3 4 -4 9 -15 9 -10 1 -19 0 -19 -2z"/>
<path d="M516 2115 c4 -8 8 -15 10 -15 2 0 4 7 4 15 0 8 -4 15 -10 15 -5 0 -7
-7 -4 -15z"/>
<path d="M456 2082 c-3 -5 1 -9 9 -9 8 0 12 4 9 9 -3 4 -7 8 -9 8 -2 0 -6 -4
-9 -8z"/>
<path d="M530 2080 c0 -5 5 -10 10 -10 6 0 10 5 10 10 0 6 -4 10 -10 10 -5 0
-10 -4 -10 -10z"/>
<path d="M475 2051 c-3 -5 -2 -12 3 -15 5 -3 9 1 9 9 0 17 -3 19 -12 6z"/>
<path d="M4611 2051 c-8 -5 -9 -11 -3 -15 5 -3 12 1 16 9 6 17 6 18 -13 6z"/>
<path d="M506 2042 c-3 -5 1 -9 9 -9 8 0 12 4 9 9 -3 4 -7 8 -9 8 -2 0 -6 -4
-9 -8z"/>
<path d="M4540 2045 c0 -8 29 -12 39 -5 9 5 4 8 -13 8 -14 0 -26 -2 -26 -3z"/>
<path d="M4532 2024 c10 -10 20 -15 24 -12 3 4 -5 12 -18 18 -22 12 -22 12 -6
-6z"/>
<path d="M536 2022 c-2 -4 -1 -14 3 -21 6 -9 11 -10 15 -2 4 6 2 11 -4 11 -6
0 -8 5 -5 10 3 6 4 10 1 10 -3 0 -7 -4 -10 -8z"/>
<path d="M4575 2019 c-6 -8 -4 -10 5 -4 10 6 12 4 6 -11 -6 -15 -5 -17 5 -6 9
9 10 15 2 23 -8 8 -13 7 -18 -2z"/>
<path d="M489 2003 c-13 -16 -12 -17 4 -4 9 7 17 15 17 17 0 8 -8 3 -21 -13z"/>
<path d="M4550 1996 c0 -2 7 -9 15 -16 13 -11 14 -10 9 4 -5 14 -24 23 -24 12z"/>
<path d="M540 1971 c0 -7 -5 -9 -12 -5 -7 5 -8 3 -3 -5 5 -9 10 -10 18 -2 6 6
8 14 4 18 -4 3 -7 1 -7 -6z"/>
<path d="M4580 1960 c-8 -5 -10 -10 -5 -10 6 0 17 5 25 10 8 5 11 10 5 10 -5
0 -17 -5 -25 -10z"/>
<path d="M470 1939 c0 -5 5 -7 10 -4 6 3 10 8 10 11 0 2 -4 4 -10 4 -5 0 -10
-5 -10 -11z"/>
<path d="M598 1909 c-12 -13 -14 -19 -5 -19 7 0 18 9 25 20 15 25 3 25 -20 -1z"/>
<path d="M4515 1909 c-4 -6 -5 -12 -2 -15 2 -3 7 2 10 11 7 17 1 20 -8 4z"/>
<path d="M547 1899 c7 -7 15 -10 18 -7 3 3 -2 9 -12 12 -14 6 -15 5 -6 -5z"/>
<path d="M4550 1901 c0 -6 4 -13 10 -16 6 -3 7 1 4 9 -7 18 -14 21 -14 7z"/>
<path d="M4610 1899 c0 -5 5 -7 10 -4 6 3 10 8 10 11 0 2 -4 4 -10 4 -5 0 -10
-5 -10 -11z"/>
<path d="M4526 1885 c-9 -26 -7 -32 5 -12 6 10 9 21 6 23 -2 3 -7 -2 -11 -11z"/>
<path d="M473 1875 c0 -8 4 -12 9 -9 5 3 6 10 3 15 -9 13 -12 11 -12 -6z"/>
<path d="M515 1880 c3 -5 8 -10 11 -10 2 0 4 5 4 10 0 6 -5 10 -11 10 -5 0 -7
-4 -4 -10z"/>
<path d="M599 1868 c-7 -23 -3 -45 8 -41 16 6 17 23 2 23 -5 0 -7 5 -4 10 3 6
4 10 1 10 -3 0 -6 -1 -7 -2z"/>
<path d="M4610 1859 c0 -5 5 -7 10 -4 6 3 10 8 10 11 0 2 -4 4 -10 4 -5 0 -10
-5 -10 -11z"/>
<path d="M510 1857 c0 -2 6 -10 14 -16 11 -9 16 -9 22 1 4 7 4 10 -1 6 -4 -4
-14 -3 -22 3 -7 6 -13 9 -13 6z"/>
<path d="M4530 1838 c0 -11 12 -10 30 2 12 7 10 9 -8 7 -12 0 -22 -5 -22 -9z"/>
<path d="M4477 1813 c-11 -11 -8 -20 7 -20 8 0 12 6 9 14 -6 15 -7 15 -16 6z"/>
<path d="M4514 1779 c-2 -33 4 -33 11 -1 2 12 1 24 -3 26 -4 2 -8 -9 -8 -25z"/>
<path d="M475 1780 c3 -5 8 -10 11 -10 2 0 4 5 4 10 0 6 -5 10 -11 10 -5 0 -7
-4 -4 -10z"/>
<path d="M555 1769 c-4 -6 -5 -12 -2 -15 2 -3 7 2 10 11 7 17 1 20 -8 4z"/>
<path d="M636 1767 c3 -10 9 -15 12 -12 3 3 0 11 -7 18 -10 9 -11 8 -5 -6z"/>
<path d="M594 1763 c3 -4 0 -13 -6 -22 -9 -11 -6 -10 9 2 13 12 23 14 26 7 4
-6 5 -6 3 1 -1 7 -10 13 -20 15 -10 1 -15 0 -12 -3z"/>
<path d="M4461 1757 c2 -1 12 -9 22 -16 15 -12 17 -12 11 3 -3 9 -13 16 -22
16 -8 0 -13 -1 -11 -3z"/>
<path d="M654 1735 c-3 -8 -4 -20 -1 -27 3 -7 6 -2 6 11 1 21 3 22 19 10 15
-13 16 -12 3 4 -16 21 -20 21 -27 2z"/>
<path d="M828 1738 c-3 -7 -16 -13 -29 -13 -20 0 -24 -5 -24 -28 0 -21 -9 -32
-39 -51 -33 -19 -36 -24 -20 -30 10 -4 15 -4 11 0 -8 8 25 34 35 28 5 -3 -6
-18 -23 -33 -22 -21 -27 -31 -18 -36 7 -5 10 -4 6 2 -4 6 0 13 7 16 15 6 29
-6 39 -33 5 -13 6 -12 6 1 1 9 -6 22 -14 29 -8 7 -15 18 -15 24 0 6 11 -1 24
-16 15 -17 22 -36 20 -54 -1 -16 2 -35 7 -44 7 -11 8 -9 3 10 -6 24 -5 24 12
8 15 -15 15 -19 3 -34 -9 -12 -10 -15 -1 -10 12 7 15 -2 13 -34 0 -10 1 -11 5
-2 3 6 10 12 15 12 6 0 8 -4 4 -9 -3 -5 5 -13 17 -17 25 -9 70 -13 63 -5 -3 2
1 11 8 19 6 9 7 13 1 9 -6 -3 -11 0 -11 8 0 8 7 17 14 19 8 3 11 1 8 -5 -4 -5
-2 -16 5 -24 8 -10 8 -15 -1 -20 -8 -6 -7 -10 2 -17 11 -8 10 -9 -3 -5 -9 3
-19 1 -22 -6 -3 -8 -5 -8 -5 2 -1 11 -4 11 -15 2 -11 -9 -20 -10 -35 -1 -14 7
-21 7 -21 0 0 -5 7 -10 16 -10 11 0 14 -6 9 -22 l-7 -23 17 23 c9 12 21 22 27
22 7 0 6 -5 -1 -14 -8 -10 -9 -16 -1 -21 5 -3 10 -11 10 -17 0 -7 -6 -6 -15 2
-17 14 -17 14 -20 -17 -2 -15 2 -20 13 -15 11 4 13 2 7 -8 -5 -8 8 -3 29 9 20
13 40 21 42 18 3 -3 -3 -12 -15 -19 -12 -7 -21 -17 -21 -22 0 -5 9 -1 20 9 21
19 29 8 9 -12 -8 -8 -5 -13 10 -18 12 -3 19 -11 16 -16 -3 -5 -17 -2 -31 7
-13 9 -24 12 -24 8 0 -14 49 -34 56 -23 3 5 10 9 16 9 7 0 6 -5 -1 -14 -10
-11 -8 -16 8 -21 11 -3 20 -9 20 -13 -4 -24 2 -34 14 -24 13 11 42 11 53 -1 4
-4 1 -8 -7 -8 -30 -3 -34 -4 -35 -14 -2 -15 25 -50 32 -42 4 4 -4 16 -17 28
-21 18 -21 20 -4 13 11 -4 32 -8 47 -8 15 -1 30 -5 34 -9 8 -7 -10 -11 -36 -7
-10 1 -9 -3 5 -13 16 -13 17 -17 6 -31 -7 -9 -10 -16 -5 -16 11 0 -18 -20 -29
-20 -5 0 -5 5 -1 12 5 7 3 8 -5 3 -8 -5 -9 -11 -3 -17 12 -12 55 8 47 21 -2 5
2 15 11 22 13 11 15 10 12 -5 -2 -10 6 -23 17 -30 10 -6 25 -17 33 -23 7 -7
18 -13 23 -13 6 0 7 -5 3 -11 -4 -8 -9 -8 -17 0 -14 14 -37 14 -37 0 0 -5 5
-7 10 -4 6 4 17 2 25 -5 9 -7 15 -8 20 0 3 5 11 10 17 10 7 0 6 -6 -2 -15 -7
-9 -8 -15 -2 -15 5 0 13 7 16 16 4 9 9 14 12 11 3 -3 1 -15 -6 -26 -9 -18 -14
-20 -33 -10 -22 12 -22 12 -2 -8 18 -18 21 -18 32 -4 11 14 12 14 13 -1 0 -10
18 -29 40 -43 44 -28 64 -33 34 -9 -19 15 -19 16 1 8 11 -4 28 -7 37 -8 22 -1
19 -36 -4 -36 -22 0 -27 -11 -17 -35 9 -18 9 -18 5 3 -3 16 1 22 14 22 11 0
21 4 24 8 11 18 66 1 66 -20 0 -7 -4 -7 -13 0 -7 6 -22 9 -32 7 -11 -2 -23 -4
-27 -4 -5 -1 -8 -9 -8 -18 0 -15 2 -15 9 -4 5 8 19 16 32 18 18 3 20 1 10 -11
-9 -11 -9 -16 0 -22 7 -4 19 2 28 15 9 12 20 19 24 15 9 -10 9 -26 0 -21 -5 2
-18 -7 -30 -20 -12 -13 -18 -23 -14 -23 5 0 14 7 21 15 20 24 33 17 16 -7 -9
-12 -16 -29 -15 -38 0 -8 5 -3 11 13 5 15 14 27 18 27 5 0 9 8 9 18 1 37 5 52
12 52 10 0 39 29 39 39 0 4 -7 8 -15 8 -9 0 -14 -6 -11 -13 3 -8 0 -16 -6 -20
-6 -4 -8 -3 -5 3 4 6 0 16 -8 23 -8 7 -13 15 -11 19 8 12 -13 36 -31 36 -11 0
-17 6 -15 17 3 18 -36 51 -50 42 -13 -8 -9 -24 5 -20 6 1 9 1 5 -1 -5 -3 -8
-9 -8 -14 0 -11 23 -7 32 6 4 5 6 0 5 -12 0 -12 -4 -20 -8 -17 -4 2 -6 -4 -4
-13 2 -10 4 -18 5 -18 1 0 3 -8 5 -17 2 -11 -3 -16 -16 -15 -19 1 -27 17 -9
17 13 0 7 37 -8 52 -15 15 -15 3 -1 -25 9 -18 9 -20 -1 -10 -7 6 -19 9 -28 5
-13 -5 -13 -2 1 18 9 14 17 29 17 35 0 5 -4 4 -9 -4 -6 -9 -11 -10 -15 -2 -4
6 -2 11 3 11 6 0 11 5 11 11 0 8 -5 7 -15 -1 -13 -11 -14 -10 -9 4 4 10 13 15
20 12 8 -3 14 -1 14 4 0 14 -18 21 -25 10 -9 -15 -37 8 -29 24 3 6 -1 3 -9 -6
-11 -14 -16 -15 -26 -5 -9 9 -14 9 -21 -3 -6 -9 -10 -10 -10 -3 0 7 9 17 20
23 11 6 20 16 19 23 0 9 -2 9 -6 0 -2 -7 -9 -13 -14 -13 -6 0 -8 4 -4 10 3 5
-7 16 -22 24 -16 9 -21 16 -13 16 28 1 -25 26 -63 29 -5 1 -6 10 -2 20 3 11 1
22 -5 26 -8 5 -5 14 7 28 15 17 16 20 2 14 -9 -3 -22 0 -28 6 -10 9 -17 7 -31
-11 -11 -14 -21 -18 -25 -12 -4 6 -16 8 -28 5 -19 -5 -19 -4 3 9 24 14 24 15
3 13 -13 -1 -23 -4 -23 -7 0 -4 -7 -7 -15 -7 -17 0 -28 24 -15 32 6 4 10 1 10
-4 0 -6 5 -11 11 -11 8 0 7 5 -1 15 -10 13 -11 18 -1 28 10 9 11 8 5 -8 -7
-18 -6 -19 10 -6 13 11 16 11 14 1 -2 -7 3 -15 10 -17 11 -4 12 -1 3 16 -11
19 -23 25 -43 22 -12 -2 -29 39 -22 51 4 6 3 8 -4 4 -15 -9 -76 35 -80 58 -2
11 1 15 7 11 6 -3 11 -13 11 -21 0 -17 12 -18 28 -2 9 9 12 9 12 0 0 -7 6 -12
13 -12 6 1 1 9 -12 20 -12 11 -27 18 -32 15 -4 -3 -13 4 -19 15 -6 11 -8 20
-4 20 3 0 1 7 -6 15 -7 8 -17 12 -24 8 -6 -4 -5 1 2 10 12 14 11 16 -10 15
-13 -1 -29 -6 -37 -12 -12 -9 -13 -8 -6 3 6 10 4 12 -4 6 -10 -6 -11 -3 -2 14
13 23 22 28 17 9 -1 -7 -1 -9 2 -5 2 4 10 3 18 -4 9 -7 14 -8 14 -1 0 6 -13
20 -29 32 -20 13 -28 27 -26 40 5 26 -11 35 -24 13 -8 -14 -10 -15 -11 -3 0
12 -2 12 -9 2 -7 -11 -9 -10 -14 3 -4 9 -1 18 9 22 13 5 13 8 2 15 -10 8 -10
9 2 5 8 -2 14 -12 12 -21 -3 -15 0 -15 17 -4 22 13 23 35 2 30 -7 -1 -21 3
-33 9 -16 9 -19 8 -13 -2 5 -8 4 -10 -4 -5 -6 4 -9 12 -6 17 3 5 -1 6 -9 3
-18 -7 -22 11 -6 21 6 4 7 11 4 17 -4 6 1 6 14 -1 26 -14 50 10 28 28 -11 9
-15 9 -18 -1z m-33 -27 c3 -5 2 -12 -3 -15 -5 -3 -9 1 -9 9 0 17 3 19 12 6z
m22 -64 c7 -5 10 -14 6 -21 -17 -27 -10 -42 20 -37 4 0 7 -4 7 -10 0 -8 6 -7
18 2 9 7 14 9 9 4 -4 -4 0 -17 9 -26 15 -17 15 -19 1 -24 -28 -12 -8 -56 23
-48 16 4 19 0 17 -23 -1 -16 -6 -32 -11 -35 -11 -9 -46 1 -46 12 0 11 27 12
33 2 2 -5 3 -3 1 3 -1 6 3 17 9 24 7 7 -2 5 -20 -4 -29 -14 -33 -14 -47 0 -19
19 -12 35 12 27 9 -3 1 5 -18 18 -24 17 -35 32 -35 49 1 14 -7 31 -17 38 -14
10 -18 45 -9 70 1 4 20 -7 38 -21z m153 -267 c0 -5 3 -9 8 -9 20 3 32 -3 32
-17 0 -8 4 -13 9 -9 5 3 19 -8 30 -23 18 -25 19 -32 7 -48 -15 -20 -3 -60 14
-49 5 3 12 1 15 -5 4 -6 15 -8 26 -5 13 4 21 1 26 -10 5 -16 7 -16 15 -1 5 9
14 13 20 10 8 -5 9 -1 4 11 -6 16 -4 16 10 4 10 -8 12 -15 5 -17 -6 -2 -11 -8
-11 -13 0 -6 4 -7 10 -4 6 4 7 -1 3 -11 -5 -13 -3 -15 8 -9 12 7 12 6 1 -7
-11 -14 -10 -17 10 -24 13 -4 28 -8 33 -9 6 0 9 -10 8 -22 -2 -17 2 -21 17
-18 23 4 45 -26 29 -42 -5 -5 -7 -17 -3 -27 6 -15 7 -16 19 0 8 12 14 14 19 5
4 -6 11 -9 16 -6 4 3 13 -2 20 -10 7 -8 9 -15 5 -15 -5 0 0 -9 10 -20 14 -15
15 -23 6 -34 -13 -15 1 -32 18 -21 5 3 12 2 15 -3 7 -12 -26 -12 -41 0 -7 5
-20 7 -31 4 -28 -9 -53 16 -56 55 -2 19 -9 46 -16 59 -7 14 -13 26 -12 28 1 1
2 8 2 15 0 6 -5 4 -11 -5 -5 -10 -15 -18 -21 -18 -7 0 -6 5 2 15 9 11 9 15 1
15 -7 0 -9 5 -5 12 4 7 3 8 -4 4 -8 -5 -10 -1 -5 10 5 14 3 16 -11 11 -11 -5
-15 -3 -10 5 4 7 3 8 -4 4 -7 -4 -12 -2 -12 4 0 6 -4 9 -9 5 -6 -3 -14 3 -20
12 -8 14 -10 15 -11 3 0 -13 -1 -13 -10 0 -6 10 -10 11 -10 3 0 -7 -5 -13 -11
-13 -8 0 -8 4 0 14 8 10 8 16 -2 25 -8 6 -17 8 -20 4 -4 -3 -7 0 -7 7 0 11 -3
11 -12 2 -13 -13 -29 -16 -27 -4 4 21 -2 32 -13 26 -8 -5 -9 -2 -5 10 5 12 -1
20 -18 28 -19 8 -23 17 -20 39 3 21 -2 33 -18 44 -12 9 -21 18 -19 20 1 3 -1
5 -5 4 -11 -1 -4 -23 8 -28 6 -2 1 -9 -9 -17 -21 -14 -52 -9 -52 8 0 6 6 6 14
-1 18 -15 33 4 17 23 -7 9 -7 16 1 24 15 15 38 16 38 2z m225 -260 c4 -6 12
-7 18 -3 7 4 6 0 -2 -10 -7 -9 -10 -17 -5 -17 5 0 2 -5 -6 -11 -13 -9 -13 -10
0 -6 8 2 14 10 12 16 -1 7 2 10 8 6 6 -4 10 -12 9 -18 -4 -34 1 -40 19 -24 13
12 19 13 19 5 0 -7 4 -21 8 -32 7 -16 6 -17 -14 -7 -50 27 -91 60 -81 66 12 7
14 26 3 24 -5 -1 -15 -1 -23 0 -13 1 -13 2 0 11 19 12 27 12 35 0z m320 -193
c4 5 5 3 2 -3 -4 -7 0 -17 8 -24 10 -9 12 -17 5 -30 -5 -9 -8 -19 -7 -21 1 -2
-4 2 -10 10 -7 8 -13 11 -13 7 0 -5 -6 -3 -14 3 -8 7 -13 21 -11 31 2 11 -1
22 -6 25 -5 4 -7 11 -3 16 4 6 13 4 23 -5 10 -9 21 -13 26 -9z m-35 -97 c0 -5
-5 -10 -11 -10 -5 0 -7 5 -4 10 3 6 8 10 11 10 2 0 4 -4 4 -10z"/>
<path d="M791 1636 c-9 -10 -7 -17 6 -27 10 -7 15 -9 11 -5 -4 5 -3 15 3 22 6
7 6 14 1 18 -6 3 -15 0 -21 -8z"/>
<path d="M830 1559 c0 -5 -5 -7 -11 -4 -6 4 -5 -2 2 -13 7 -12 15 -19 18 -17
2 3 10 0 17 -6 10 -8 12 -6 9 11 -3 17 0 20 12 16 13 -6 14 -4 3 9 -12 15 -14
15 -22 1 -5 -9 -14 -16 -20 -16 -7 0 -6 5 2 15 9 10 9 15 1 15 -6 0 -11 -5
-11 -11z"/>
<path d="M846 1479 c2 -4 13 -7 24 -6 23 2 17 10 -10 12 -10 1 -17 -2 -14 -6z"/>
<path d="M980 1363 c0 -6 7 -16 15 -23 8 -6 13 -17 12 -23 -1 -7 3 -11 10 -10
6 1 14 -4 16 -12 4 -9 0 -12 -15 -10 -11 3 -18 1 -14 -2 4 -4 15 -8 25 -10 24
-3 35 24 15 35 -9 5 -15 13 -15 18 1 5 -4 9 -10 9 -6 0 -17 9 -25 19 -8 11
-14 15 -14 9z"/>
<path d="M1125 1190 c10 -11 21 -17 26 -15 4 3 12 -2 17 -11 6 -11 11 -13 16
-5 4 6 2 11 -3 11 -6 0 -10 3 -10 8 5 27 -2 35 -15 16 -14 -18 -15 -18 -21 -1
-4 9 -12 17 -18 17 -5 0 -2 -9 8 -20z"/>
<path d="M1283 1071 c0 -11 5 -18 9 -15 4 3 5 11 1 19 -7 21 -12 19 -10 -4z"/>
<path d="M1324 1022 c4 -7 3 -12 -2 -12 -4 0 -8 -15 -8 -34 0 -19 3 -33 5 -30
2 2 10 -1 18 -7 10 -9 13 -8 13 0 0 7 4 10 9 7 5 -3 14 1 21 9 9 11 7 16 -9
27 -22 14 -30 34 -8 22 7 -4 9 -3 4 2 -5 5 -12 9 -15 9 -4 0 -13 4 -21 9 -10
6 -12 5 -7 -2z m44 -59 c-2 -4 -10 -9 -20 -10 -18 -3 -30 20 -22 41 5 12 9 11
25 -5 10 -10 18 -22 17 -26z"/>
<path d="M1330 980 c0 -5 5 -10 11 -10 5 0 7 5 4 10 -3 6 -8 10 -11 10 -2 0
-4 -4 -4 -10z"/>
<path d="M1476 930 c5 -8 9 -24 9 -34 0 -11 8 -20 17 -22 30 -4 29 12 -4 42
-17 16 -27 22 -22 14z m33 -33 c8 -10 7 -14 -2 -14 -8 0 -14 6 -14 14 0 7 1
13 2 13 2 0 8 -6 14 -13z"/>
<path d="M4415 1730 c3 -5 8 -10 11 -10 2 0 4 5 4 10 0 6 -5 10 -11 10 -5 0
-7 -4 -4 -10z"/>
<path d="M606 1718 c3 -5 10 -6 15 -3 13 9 11 12 -6 12 -8 0 -12 -4 -9 -9z"/>
<path d="M605 1680 c10 -11 20 -20 23 -20 3 0 -3 9 -13 20 -10 11 -20 20 -23
20 -3 0 3 -9 13 -20z"/>
<path d="M804 1688 c-4 -7 -4 -10 1 -6 4 4 14 3 22 -4 7 -6 17 -8 20 -4 4 4 1
11 -7 16 -20 13 -27 12 -36 -2z"/>
<path d="M653 1675 c0 -7 6 -11 14 -8 7 3 13 6 13 8 0 2 -6 5 -13 8 -8 3 -14
-1 -14 -8z"/>
<path d="M4430 1681 c0 -10 19 -25 25 -20 1 2 -3 10 -11 17 -8 7 -14 8 -14 3z"/>
<path d="M4470 1686 c0 -2 7 -7 16 -10 8 -3 12 -2 9 4 -6 10 -25 14 -25 6z"/>
<path d="M676 1647 c3 -10 9 -15 12 -12 3 3 0 11 -7 18 -10 9 -11 8 -5 -6z"/>
<path d="M587 1639 c7 -7 15 -10 18 -7 3 3 -2 9 -12 12 -14 6 -15 5 -6 -5z"/>
<path d="M630 1636 c7 -7 13 -7 20 0 6 6 3 10 -10 10 -13 0 -16 -4 -10 -10z"/>
<path d="M4391 1604 c0 -11 3 -14 6 -6 3 7 2 16 -1 19 -3 4 -6 -2 -5 -13z"/>
<path d="M4421 1596 c-9 -11 -9 -16 1 -22 7 -4 10 -4 6 1 -4 4 0 14 10 21 9 7
12 14 6 14 -6 0 -17 -6 -23 -14z"/>
<path d="M670 1583 c0 -13 17 -26 38 -29 6 -1 10 2 6 7 -3 5 -9 7 -14 4 -5 -3
-13 3 -19 12 -6 10 -11 13 -11 6z"/>
<path d="M746 1561 c5 -18 3 -22 -7 -16 -8 5 -11 4 -6 0 4 -5 18 -10 30 -12
12 -2 17 0 11 4 -6 5 -16 17 -23 28 -11 19 -12 19 -5 -4z"/>
<path d="M4395 1560 c-3 -5 -1 -10 4 -10 6 0 11 5 11 10 0 6 -2 10 -4 10 -3 0
-8 -4 -11 -10z"/>
<path d="M606 1542 c-3 -5 1 -9 9 -9 8 0 12 4 9 9 -3 4 -7 8 -9 8 -2 0 -6 -4
-9 -8z"/>
<path d="M4366 1527 c-16 -12 -16 -14 -3 -14 9 0 18 6 21 14 3 7 4 13 3 13 -2
0 -11 -6 -21 -13z"/>
<path d="M765 1505 c11 -9 19 -19 17 -23 -2 -3 1 -7 7 -8 7 -2 8 -1 1 3 -5 2
-8 9 -5 13 3 5 -5 14 -17 20 -22 11 -22 11 -3 -5z"/>
<path d="M4326 1501 c-4 -5 -2 -12 3 -15 5 -4 12 -2 15 3 4 5 2 12 -3 15 -5 4
-12 2 -15 -3z"/>
<path d="M620 1485 c0 -2 6 -8 13 -14 10 -8 14 -7 14 2 0 8 -6 14 -14 14 -7 0
-13 -1 -13 -2z"/>
<path d="M4393 1473 c0 -9 4 -10 14 -2 7 6 13 12 13 14 0 1 -6 2 -13 2 -8 0
-14 -6 -14 -14z"/>
<path d="M4446 1482 c-3 -5 1 -9 9 -9 8 0 12 4 9 9 -3 4 -7 8 -9 8 -2 0 -6 -4
-9 -8z"/>
<path d="M754 1465 c1 -8 8 -21 16 -28 12 -10 12 -9 2 4 -6 9 -9 18 -6 21 3 3
1 9 -4 12 -6 3 -9 -1 -8 -9z"/>
<path d="M4350 1469 c0 -5 -6 -7 -12 -3 -7 4 -10 3 -5 -1 4 -5 16 -9 27 -10
15 -1 17 1 9 12 -14 16 -19 17 -19 2z"/>
<path d="M4293 1440 c1 -14 5 -23 9 -20 4 3 13 -3 20 -13 13 -18 14 -18 14 1
0 12 -6 19 -16 17 -8 -1 -18 7 -22 19 -6 19 -7 18 -5 -4z"/>
<path d="M790 1436 c0 -3 9 -10 20 -16 11 -6 20 -8 20 -6 0 3 -9 10 -20 16
-11 6 -20 8 -20 6z"/>
<path d="M4353 1413 c0 -9 4 -10 14 -2 7 6 13 12 13 14 0 1 -6 2 -13 2 -8 0
-14 -6 -14 -14z"/>
<path d="M770 1417 c0 -2 6 -10 14 -16 11 -9 16 -9 22 1 4 7 4 10 -1 6 -4 -4
-14 -3 -22 3 -7 6 -13 9 -13 6z"/>
<path d="M4280 1396 c0 -8 4 -17 9 -20 5 -4 7 3 4 14 -6 23 -13 26 -13 6z"/>
<path d="M830 1380 c0 -5 5 -10 10 -10 6 0 10 5 10 10 0 6 -4 10 -10 10 -5 0
-10 -4 -10 -10z"/>
<path d="M4270 1360 c0 -5 5 -10 11 -10 5 0 7 5 4 10 -3 6 -8 10 -11 10 -2 0
-4 -4 -4 -10z"/>
<path d="M4355 1340 c-3 -5 -1 -10 4 -10 6 0 11 5 11 10 0 6 -2 10 -4 10 -3 0
-8 -4 -11 -10z"/>
<path d="M4225 1323 c-18 -14 -18 -15 -1 -9 10 3 26 1 35 -6 14 -12 15 -11 1
7 -8 11 -14 21 -15 22 0 1 -9 -6 -20 -14z"/>
<path d="M4319 1313 c-13 -16 -12 -17 4 -4 9 7 17 15 17 17 0 8 -8 3 -21 -13z"/>
<path d="M775 1299 c-3 -4 2 -6 10 -5 21 3 28 13 10 13 -9 0 -18 -4 -20 -8z"/>
<path d="M874 1296 c4 -10 1 -26 -6 -35 -11 -14 -10 -14 6 0 15 14 16 20 6 35
-11 18 -11 18 -6 0z"/>
<path d="M4200 1293 c0 -6 8 -17 18 -24 16 -13 16 -13 2 6 -8 11 -16 22 -17
24 -2 2 -3 0 -3 -6z"/>
<path d="M931 1274 c0 -11 3 -14 6 -6 3 7 2 16 -1 19 -3 4 -6 -2 -5 -13z"/>
<path d="M4266 1278 c3 -5 10 -6 15 -3 13 9 11 12 -6 12 -8 0 -12 -4 -9 -9z"/>
<path d="M4295 1260 c3 -5 8 -10 11 -10 2 0 4 5 4 10 0 6 -5 10 -11 10 -5 0
-7 -4 -4 -10z"/>
<path d="M913 1232 c-8 -14 -8 -19 1 -19 7 0 13 9 13 19 1 10 1 18 0 18 -1 0
-7 -8 -14 -18z"/>
<path d="M950 1219 c-12 -8 -10 -9 9 -4 17 5 22 4 16 -5 -5 -9 -4 -11 4 -6 6
4 9 12 6 17 -8 12 -16 11 -35 -2z"/>
<path d="M4193 1207 c-1 -11 -1 -18 0 -16 2 2 8 11 15 20 9 12 9 16 -1 16 -7
0 -14 -9 -14 -20z"/>
<path d="M4171 1204 c0 -11 3 -14 6 -6 3 7 2 16 -1 19 -3 4 -6 -2 -5 -13z"/>
<path d="M995 1200 c-3 -5 -2 -10 4 -10 5 0 13 5 16 10 3 6 2 10 -4 10 -5 0
-13 -4 -16 -10z"/>
<path d="M1006 1166 c-10 -17 -12 -27 -5 -31 6 -4 13 -4 16 -1 4 3 1 6 -6 6
-7 0 -9 5 -6 10 4 6 11 8 16 5 5 -3 6 2 2 11 -5 13 -3 15 7 9 9 -5 11 -4 6 3
-10 16 -11 16 -30 -12z"/>
<path d="M4256 1181 c-3 -5 2 -15 12 -22 15 -12 16 -12 5 2 -7 9 -10 19 -6 22
3 4 4 7 0 7 -3 0 -8 -4 -11 -9z"/>
<path d="M875 1169 c-4 -6 -5 -12 -2 -15 2 -3 7 2 10 11 7 17 1 20 -8 4z"/>
<path d="M4106 1165 c-11 -8 -15 -15 -9 -15 6 0 16 7 23 15 16 19 11 19 -14 0z"/>
<path d="M4182 1164 c10 -10 20 -16 22 -13 3 3 -5 11 -17 18 -21 13 -21 12 -5
-5z"/>
<path d="M945 1159 c-3 -4 2 -6 10 -5 21 3 28 13 10 13 -9 0 -18 -4 -20 -8z"/>
<path d="M3814 1155 c-12 -8 -25 -11 -29 -7 -4 4 0 -5 9 -19 9 -14 14 -35 10
-45 -5 -18 -5 -18 6 -1 6 9 8 23 4 30 -4 7 -3 8 2 4 5 -5 9 -17 9 -28 0 -10 5
-18 10 -16 6 1 9 10 9 20 -1 11 4 16 12 13 7 -3 18 2 25 10 8 10 15 12 23 4
17 -17 26 -11 22 13 -3 12 -5 24 -5 26 -1 2 -9 -3 -20 -13 -17 -15 -44 -21
-80 -17 -11 1 -10 5 4 21 21 24 17 26 -11 5z m103 -20 c0 -8 -4 -12 -9 -9 -5
3 -6 10 -3 15 9 13 12 11 12 -6z"/>
<path d="M1036 1143 c-6 -14 -5 -15 5 -6 7 7 10 15 7 18 -3 3 -9 -2 -12 -12z"/>
<path d="M885 1140 c-3 -6 1 -7 9 -4 18 7 21 14 7 14 -6 0 -13 -4 -16 -10z"/>
<path d="M4073 1143 c4 -6 0 -13 -8 -17 -8 -3 -15 -11 -14 -18 0 -10 2 -10 6
0 2 6 8 10 13 7 4 -3 10 2 14 10 3 8 0 17 -6 21 -6 4 -8 3 -5 -3z"/>
<path d="M1050 1120 c0 -5 5 -10 10 -10 6 0 10 5 10 10 0 6 -4 10 -10 10 -5 0
-10 -4 -10 -10z"/>
<path d="M933 1105 c0 -8 4 -12 9 -9 5 3 6 10 3 15 -9 13 -12 11 -12 -6z"/>
<path d="M1117 1103 c-4 -3 -7 -11 -7 -17 0 -6 5 -5 12 2 6 6 9 14 7 17 -3 3
-9 2 -12 -2z"/>
<path d="M4176 1098 c3 -5 10 -6 15 -3 13 9 11 12 -6 12 -8 0 -12 -4 -9 -9z"/>
<path d="M1076 1085 c4 -8 8 -15 10 -15 2 0 4 7 4 15 0 8 -4 15 -10 15 -5 0
-7 -7 -4 -15z"/>
<path d="M4031 1087 c2 -1 13 -9 24 -17 19 -14 19 -14 6 3 -7 9 -18 17 -24 17
-6 0 -8 -1 -6 -3z"/>
<path d="M1033 1065 c0 -8 4 -12 9 -9 5 3 6 10 3 15 -9 13 -12 11 -12 -6z"/>
<path d="M3995 1070 c-3 -5 -1 -10 4 -10 6 0 11 5 11 10 0 6 -2 10 -4 10 -3 0
-8 -4 -11 -10z"/>
<path d="M1055 1049 c-4 -6 -5 -12 -2 -15 2 -3 7 2 10 11 7 17 1 20 -8 4z"/>
<path d="M1142 1042 c-8 -6 -2 -9 18 -9 20 0 26 3 18 9 -7 4 -15 8 -18 8 -3 0
-11 -4 -18 -8z"/>
<path d="M3753 1030 c1 -18 3 -18 19 -3 22 20 22 18 -1 20 -14 1 -19 -4 -18
-17z"/>
<path d="M3975 1040 c-3 -6 1 -7 9 -4 18 7 21 14 7 14 -6 0 -13 -4 -16 -10z"/>
<path d="M4035 1040 c3 -5 8 -10 11 -10 2 0 4 5 4 10 0 6 -5 10 -11 10 -5 0
-7 -4 -4 -10z"/>
<path d="M4095 1031 c-3 -5 -2 -12 3 -15 5 -3 9 1 9 9 0 17 -3 19 -12 6z"/>
<path d="M3985 1020 c-3 -6 1 -7 9 -4 18 7 21 14 7 14 -6 0 -13 -4 -16 -10z"/>
<path d="M4034 1013 c16 -20 36 -23 36 -6 0 4 -3 3 -7 0 -3 -4 -16 1 -27 10
-21 18 -21 18 -2 -4z"/>
<path d="M1156 1005 c4 -8 8 -15 10 -15 2 0 4 7 4 15 0 8 -4 15 -10 15 -5 0
-7 -7 -4 -15z"/>
<path d="M3685 1001 c-3 -5 -1 -12 5 -16 6 -4 7 -11 4 -17 -4 -6 -2 -8 4 -4 6
3 10 15 9 26 -1 21 -12 26 -22 11z"/>
<path d="M3940 998 c0 -4 7 -8 15 -8 8 0 15 4 15 8 0 5 -7 9 -15 9 -8 0 -15
-4 -15 -9z"/>
<path d="M1127 979 c7 -7 15 -10 18 -7 3 3 -2 9 -12 12 -14 6 -15 5 -6 -5z"/>
<path d="M3910 982 c0 -12 22 -32 35 -32 5 0 2 5 -8 11 -9 6 -15 14 -12 20 4
5 1 9 -4 9 -6 0 -11 -4 -11 -8z"/>
<path d="M3979 978 c-5 -9 -5 -48 -1 -43 6 6 11 45 5 45 -2 0 -4 -1 -4 -2z"/>
<path d="M1200 956 c0 -8 4 -17 9 -20 5 -4 7 3 4 14 -6 23 -13 26 -13 6z"/>
<path d="M3875 960 c-3 -5 -2 -10 4 -10 5 0 13 5 16 10 3 6 2 10 -4 10 -5 0
-13 -4 -16 -10z"/>
<path d="M1235 940 c-3 -5 -1 -10 4 -10 6 0 11 5 11 10 0 6 -2 10 -4 10 -3 0
-8 -4 -11 -10z"/>
<path d="M3895 941 c-3 -5 0 -13 7 -18 16 -10 42 -14 33 -5 -4 4 -12 7 -18 7
-7 1 -11 6 -9 13 2 14 -4 16 -13 3z"/>
<path d="M1270 920 c0 -5 5 -10 10 -10 6 0 10 5 10 10 0 6 -4 10 -10 10 -5 0
-10 -4 -10 -10z"/>
<path d="M3830 921 c0 -6 5 -13 12 -17 7 -5 8 -3 3 6 -6 10 -4 12 9 7 10 -4
15 -3 11 3 -8 13 -35 13 -35 1z"/>
<path d="M1577 877 c-14 -19 -27 -40 -29 -48 -3 -15 42 -66 55 -61 5 1 7 -3 4
-10 -2 -7 -9 -12 -15 -11 -18 4 -36 -37 -22 -51 8 -8 9 -6 4 8 -5 13 -4 17 4
12 8 -5 10 -2 6 9 -4 9 -3 15 2 14 5 -1 11 0 14 1 3 1 16 4 30 6 14 1 33 4 44
6 18 3 29 -9 41 -47 5 -16 8 -17 15 -5 5 8 7 22 5 31 -3 9 3 22 12 30 16 12
17 12 5 -2 -10 -13 -9 -19 3 -29 16 -13 21 -35 7 -26 -5 3 -16 -4 -25 -15 -9
-10 -13 -19 -7 -19 5 0 13 7 18 16 6 11 12 13 16 6 3 -6 2 -13 -4 -17 -5 -3
-10 -12 -10 -18 0 -7 5 -4 11 5 5 9 16 15 24 12 8 -4 12 -11 8 -18 -4 -7 -2
-7 8 1 9 7 26 10 40 7 13 -4 34 -6 46 -6 14 0 20 -5 16 -14 -3 -8 1 -14 8 -14
7 0 9 3 6 7 -8 8 11 33 25 33 6 0 6 -6 -1 -14 -6 -7 -9 -21 -5 -30 5 -12 2
-15 -12 -10 -18 5 -18 5 -1 -6 16 -10 26 -36 9 -26 -4 2 -14 0 -22 -5 -11 -7
-8 -8 10 -6 14 2 26 10 26 18 3 31 5 33 15 16 5 -9 7 -23 2 -30 -12 -19 -12
-36 -1 -44 6 -3 8 -1 4 5 -3 5 0 13 6 15 10 4 10 6 0 6 -7 1 -10 6 -7 11 5 8
11 7 21 -1 7 -6 11 -16 7 -22 -3 -6 -1 -7 6 -3 8 6 9 12 2 20 -6 7 -7 17 -3
21 4 5 1 5 -5 1 -7 -4 -14 -4 -14 1 -9 64 -9 64 16 47 16 -10 25 -12 30 -4 3
6 10 8 15 5 5 -3 0 -15 -10 -25 -21 -21 -28 -46 -10 -35 6 3 10 13 10 22 0 11
5 9 20 -8 10 -13 19 -18 20 -11 0 6 8 12 17 12 14 0 12 -5 -8 -27 l-24 -28 32
29 c31 27 31 28 42 8 15 -27 14 -32 -4 -26 -8 4 -12 10 -9 15 8 14 -2 11 -15
-4 -8 -10 -7 -14 2 -14 6 0 19 -2 27 -4 9 -3 15 3 15 15 0 11 6 21 14 24 8 3
11 0 7 -7 -5 -7 -1 -9 10 -4 12 4 15 3 10 -5 -4 -7 -3 -12 1 -12 5 0 14 9 21
20 15 24 38 26 46 4 4 -9 9 -14 13 -11 3 4 12 -1 19 -11 12 -16 14 -16 28 3
13 17 15 18 16 3 0 -9 -4 -20 -10 -23 -5 -3 -10 -10 -10 -15 0 -5 14 4 32 20
17 16 34 27 37 24 3 -3 -7 -16 -23 -29 -16 -13 -25 -28 -22 -34 4 -6 12 -9 17
-6 5 4 9 0 9 -8 0 -8 7 -17 15 -21 13 -5 13 -2 -1 19 -9 14 -20 22 -25 19 -5
-3 -9 -1 -9 4 0 6 7 13 16 16 22 8 26 8 19 -4 -3 -5 -1 -10 5 -10 6 0 9 8 6
18 -4 13 -1 18 14 18 23 0 25 -7 8 -25 -7 -7 4 -4 25 8 20 11 37 16 37 11 0
-6 -11 -15 -24 -20 -26 -9 -44 -30 -27 -30 6 0 11 3 11 8 0 4 12 12 26 19 22
10 24 10 19 -7 -3 -10 1 -25 10 -34 23 -22 32 -20 12 2 -21 23 -22 39 -2 22 9
-8 15 -8 15 -2 0 6 -6 12 -12 15 -7 2 -10 7 -6 11 3 4 25 -2 47 -14 37 -18 42
-19 47 -5 6 14 8 14 25 -1 11 -10 19 -12 19 -6 0 7 -5 12 -11 12 -5 0 -7 5 -4
10 4 6 10 8 15 5 5 -3 15 1 23 9 8 8 19 11 27 6 9 -6 7 -10 -9 -15 -21 -6 -21
-7 -4 -20 10 -7 22 -11 27 -7 5 3 7 -2 3 -12 -5 -11 -3 -15 5 -10 8 5 9 2 5
-9 -9 -24 0 -21 14 4 6 12 7 19 1 15 -5 -3 -13 1 -16 10 -3 8 -10 13 -15 9 -5
-3 -12 -1 -15 4 -8 12 26 25 33 13 13 -19 47 -31 62 -21 12 8 12 10 -1 8 -28
-3 -40 1 -40 12 0 6 7 8 16 5 8 -3 13 -2 10 2 -3 5 11 16 30 25 19 10 32 22
29 27 -3 6 -2 10 4 10 26 0 19 -22 -13 -41 -37 -22 -51 -37 -17 -19 13 7 22 7
26 0 3 -5 -2 -10 -12 -11 -12 0 -13 -2 -5 -6 7 -3 24 5 36 16 25 24 40 24 67
2 10 -8 25 -16 34 -17 13 -2 12 3 -5 30 -11 18 -17 36 -13 39 3 4 0 7 -7 7
-17 0 -4 13 16 16 10 2 13 -3 9 -16 -3 -10 1 -25 9 -33 8 -8 13 -17 10 -20 -3
-3 2 -4 11 -3 9 1 22 13 28 26 7 13 19 26 27 28 13 5 13 3 1 -11 -11 -14 -11
-18 2 -23 9 -3 24 -1 34 5 15 9 13 10 -12 5 -28 -5 -29 -4 -12 9 10 9 33 14
53 12 19 -1 37 2 40 6 3 5 10 9 16 9 7 0 6 -6 -2 -15 -26 -31 0 -14 39 27 23
22 41 36 41 29 0 -8 7 -10 20 -6 13 4 20 2 18 -5 -2 -7 3 -14 10 -15 7 -2 8
-1 2 2 -15 7 -2 23 14 17 7 -3 16 2 19 10 4 9 2 16 -3 16 -6 0 -10 -4 -10 -8
0 -13 -63 -7 -67 5 -3 7 6 10 21 9 29 -4 54 9 42 21 -5 4 -11 2 -13 -5 -4 -9
-11 -4 -23 15 -12 20 -15 33 -8 46 15 29 2 31 -32 7 -32 -23 -35 -40 -9 -49
11 -3 12 -1 2 11 -16 19 -5 32 14 17 11 -10 11 -15 1 -27 -10 -12 -10 -14 -1
-8 9 5 11 2 6 -9 -3 -10 -8 -13 -12 -6 -4 6 -20 8 -36 6 -17 -3 -25 -2 -20 2
13 10 19 53 7 53 -5 0 -20 -9 -34 -19 -24 -20 -30 -44 -14 -69 6 -9 1 -11 -18
-8 -14 3 -26 0 -26 -5 0 -5 -3 -8 -7 -8 -5 1 -10 0 -13 -1 -3 -1 -15 -3 -27
-4 -19 -2 -21 0 -12 18 10 20 10 21 -5 2 -9 -11 -17 -15 -17 -8 -1 7 -2 18 -3
25 -4 21 5 28 20 16 11 -9 14 -9 14 0 0 9 5 9 20 1 11 -6 18 -15 15 -20 -3 -5
4 -8 15 -7 24 2 26 12 4 21 -8 3 -13 10 -10 15 3 5 -4 7 -16 4 -17 -3 -19 -2
-9 5 8 6 10 12 3 16 -6 4 -15 -1 -20 -10 -6 -11 -11 -13 -16 -5 -5 7 -14 5
-28 -9 -16 -15 -25 -17 -40 -9 -24 13 -35 5 -20 -14 9 -10 9 -16 0 -25 -8 -8
-16 -5 -29 12 -10 13 -27 22 -40 21 -30 -2 -36 -22 -7 -22 40 -1 48 -3 48 -12
0 -6 -9 -8 -19 -6 -11 2 -26 -4 -33 -13 -11 -13 -11 -15 4 -9 10 3 20 1 24 -6
4 -7 4 -9 -1 -5 -4 4 -14 3 -22 -3 -7 -6 -13 -7 -13 -2 0 5 -10 10 -22 10 -18
2 -20 0 -8 -7 13 -9 13 -10 0 -11 -8 -1 -18 -1 -22 0 -5 0 -8 -5 -8 -12 0 -8
-3 -7 -10 3 -5 9 -5 19 0 26 6 6 7 14 3 17 -15 15 -20 5 -18 -38 1 -29 -3 -46
-12 -49 -17 -7 -44 4 -38 15 3 4 13 5 21 2 13 -5 15 -1 9 17 -5 16 -4 20 5 15
9 -5 10 -2 3 11 -8 17 -9 28 -4 49 0 3 10 1 21 -5 16 -8 20 -8 20 4 0 9 -9 13
-26 11 -26 -2 -47 -22 -38 -36 8 -14 -22 -17 -39 -4 -14 10 -15 14 -5 18 7 2
10 8 5 13 -8 8 -44 -35 -39 -48 1 -5 -3 -8 -8 -8 -6 0 -10 7 -10 16 0 8 -4 12
-10 9 -9 -6 -14 8 -11 28 1 5 -9 6 -21 2 -17 -5 -19 -4 -8 4 8 5 11 13 8 17
-4 3 -19 -3 -34 -15 -16 -13 -36 -19 -51 -17 -14 3 -21 1 -17 -5 7 -11 -13
-39 -28 -39 -6 0 -8 7 -5 14 4 11 1 13 -10 9 -10 -4 -14 -2 -9 5 3 6 2 13 -3
17 -6 3 -8 11 -5 19 3 7 -2 13 -10 13 -19 0 -16 -37 4 -38 9 0 7 -4 -8 -11
-14 -7 -21 -17 -17 -27 3 -11 0 -9 -10 3 -8 11 -15 15 -15 10 0 -6 -7 -11 -15
-11 -8 0 -11 5 -8 10 4 6 1 7 -7 2 -9 -5 -11 -4 -6 3 4 8 2 10 -7 6 -9 -3 -21
4 -30 16 -11 16 -16 18 -20 7 -3 -8 0 -20 6 -27 7 -7 -1 -4 -18 6 -16 11 -26
14 -23 9 4 -6 3 -17 -3 -25 -7 -12 -9 -12 -9 4 0 12 -5 16 -16 12 -10 -4 -13
-2 -8 6 4 6 3 8 -2 5 -5 -3 -10 3 -10 14 0 19 1 19 13 2 12 -15 16 -16 34 -5
12 8 18 9 14 3 -3 -6 -1 -11 4 -11 17 0 13 15 -11 36 -19 17 -21 17 -15 2 3
-10 1 -20 -5 -24 -7 -4 -8 -3 -4 4 4 7 3 12 -3 12 -6 0 -19 9 -29 20 -17 18
-20 19 -32 5 -10 -12 -16 -13 -27 -4 -10 9 -18 8 -32 -5 -18 -17 -39 -7 -27
12 3 5 -1 9 -9 9 -8 0 -15 -5 -15 -11 0 -6 -12 1 -25 17 -13 15 -27 27 -32 27
-4 0 -2 -5 5 -12 16 -16 15 -25 -4 -25 -9 0 -23 11 -31 24 -14 22 -33 23 -33
2 0 -6 4 -8 9 -4 5 3 13 0 17 -6 5 -8 3 -9 -7 -4 -11 7 -11 5 1 -11 13 -17 13
-18 0 -8 -8 6 -23 10 -33 9 -9 -2 -15 1 -11 6 3 5 10 6 16 3 6 -4 6 2 -1 15
-7 11 -16 21 -21 21 -6 0 -9 6 -7 13 1 8 -14 12 -51 12 -36 -1 -51 3 -48 11 2
6 -3 11 -12 10 -9 0 -17 5 -18 12 -1 6 -2 16 -3 22 -2 19 -41 32 -57 19 -11
-9 -14 -9 -14 1 0 6 -6 10 -12 7 -7 -2 -12 -10 -10 -16 1 -7 -2 -9 -9 -5 -7 4
-9 3 -6 -3 3 -5 0 -10 -8 -10 -8 0 -11 5 -8 10 4 6 1 7 -7 2 -9 -6 -11 -4 -5
5 6 9 4 11 -5 5 -9 -6 -11 -4 -5 5 5 8 4 11 -2 7 -5 -3 -10 0 -10 8 0 8 3 14
6 13 19 -2 24 4 11 12 -13 8 -13 10 2 10 9 0 20 -4 23 -10 3 -5 2 -10 -4 -10
-7 0 -8 -14 -2 -38 1 -1 7 3 15 10 10 10 11 15 2 21 -6 5 -2 6 11 2 12 -3 25
-1 29 6 5 9 2 10 -9 6 -9 -3 -27 3 -40 13 l-25 20 -25 -33z m-2 -28 c-7 -11
33 -46 48 -41 4 1 7 -2 7 -8 0 -14 -13 -13 -28 2 -7 7 -12 8 -12 2 0 -17 48
-36 56 -22 5 7 3 8 -5 3 -10 -6 -10 -2 0 16 7 13 12 28 11 33 -2 5 3 4 12 -3
11 -9 16 -9 22 0 5 9 10 7 20 -5 7 -10 16 -17 21 -17 4 1 8 -2 8 -6 0 -5 4
-13 7 -19 4 -6 -1 -19 -11 -28 -16 -15 -19 -15 -31 -1 -7 9 -19 14 -26 11 -9
-3 -11 0 -7 11 4 11 2 14 -5 9 -7 -4 -12 -14 -12 -22 0 -18 -14 -18 -30 1 -7
8 -15 13 -19 12 -3 -2 -16 7 -28 20 -12 13 -18 23 -12 23 6 0 7 5 4 10 -6 10
1 30 11 30 3 0 2 -5 -1 -11z m283 -100 c-5 -3 -9 -9 -9 -13 3 -20 0 -26 -10
-20 -8 5 -8 9 1 14 7 5 0 7 -18 6 -17 -1 -34 -5 -39 -9 -4 -5 0 -5 9 -2 18 7
32 -20 20 -41 -7 -12 -11 -12 -27 1 -19 16 -19 16 5 11 14 -3 19 -3 12 0 -6 3
-9 11 -5 17 3 7 2 9 -2 4 -9 -8 -47 22 -41 32 2 3 29 6 59 6 31 0 51 -3 45 -6z
m32 -27 c0 -5 -3 -12 -7 -16 -11 -10 -12 -36 -2 -36 5 0 9 4 9 9 0 5 7 8 15 7
9 -1 15 -6 15 -12 0 -14 -81 -6 -96 9 -4 4 -2 7 6 7 10 0 10 4 -1 18 -12 15
-12 16 2 4 13 -10 19 -9 29 3 14 16 30 20 30 7z m1261 -21 c-13 -23 -3 -32 27
-26 12 2 24 -1 28 -7 7 -11 -45 -65 -59 -60 -5 1 -15 -3 -23 -9 -17 -14 -18 2
-1 21 6 8 0 4 -15 -9 -22 -19 -30 -22 -42 -12 -11 9 -15 9 -19 -1 -3 -10 -7
-10 -17 -1 -10 9 -17 7 -31 -12 -11 -13 -19 -29 -19 -36 0 -24 -33 18 -34 43
0 13 -7 23 -16 24 -21 0 -41 -16 -33 -29 3 -5 1 -7 -5 -3 -6 3 -14 1 -18 -5
-4 -7 -3 -9 4 -5 6 3 20 -4 31 -16 29 -30 26 -47 -2 -20 -13 12 -26 20 -29 16
-4 -3 -9 4 -13 15 -3 12 -11 18 -17 15 -7 -4 -8 -2 -4 5 4 6 11 9 15 7 4 -3
13 -1 21 5 10 6 11 9 3 9 -7 0 -13 4 -13 9 0 6 9 8 19 6 11 -2 25 3 31 11 7 7
17 11 23 7 6 -4 8 0 5 9 -8 20 19 19 28 -1 9 -22 13 -61 7 -61 -3 0 -12 8 -20
18 -13 15 -13 14 -3 -7 10 -18 9 -22 -1 -16 -8 5 -10 4 -5 -3 5 -9 13 -9 27
-2 11 6 17 15 14 21 -6 9 7 13 38 10 9 -1 17 2 17 7 0 8 14 12 52 13 22 0 32
15 18 24 -8 5 -7 11 1 21 9 11 9 14 0 14 -8 0 -8 4 1 14 7 8 16 12 21 9 4 -2
7 1 7 8 0 7 3 10 6 7 3 -4 1 -15 -5 -27z m-1181 -43 c0 -4 -5 -8 -11 -8 -8 0
-7 -5 1 -15 11 -13 10 -14 -4 -9 -18 7 -21 20 -6 29 7 4 6 14 -1 28 -10 21
-10 21 5 3 9 -11 16 -23 16 -28z m45 21 c4 -5 10 -7 15 -4 4 3 13 -2 20 -10
11 -14 15 -14 31 1 11 10 22 14 26 11 3 -4 1 -7 -6 -7 -7 0 -9 -4 -6 -10 4 -6
17 -4 36 5 16 9 29 14 30 13 10 -37 8 -50 -6 -44 -11 4 -14 2 -9 -6 4 -6 3 -8
-2 -5 -6 3 -16 2 -23 -2 -9 -6 -10 -11 -2 -15 6 -4 11 -2 11 4 0 6 5 8 10 5 6
-4 8 -11 5 -16 -3 -5 1 -6 10 -2 13 5 14 7 3 14 -9 6 -9 9 -1 9 6 0 15 -5 18
-10 4 -6 10 -8 15 -5 9 6 21 -20 13 -29 -3 -3 -14 -1 -24 4 -9 6 -24 7 -32 4
-8 -3 -18 0 -22 5 -3 6 -11 8 -17 5 -6 -4 -8 -2 -5 3 4 7 -3 10 -17 9 -13 0
-22 -4 -19 -8 2 -5 -1 -8 -8 -8 -6 0 -9 8 -6 20 6 22 -17 48 -28 30 -4 -7 -12
-7 -26 0 -11 6 -17 15 -14 21 4 5 1 9 -4 9 -6 0 -11 4 -11 8 0 11 39 12 45 1z
m1235 7 c0 -3 -4 -8 -10 -11 -5 -3 -10 -1 -10 4 0 6 5 11 10 11 6 0 10 -2 10
-4z m-696 -67 c-3 -5 0 -9 5 -9 6 0 11 5 11 12 0 7 11 -3 24 -21 23 -31 39
-29 41 4 1 12 27 7 36 -6 7 -11 31 -8 41 5 3 5 5 -2 5 -17 -1 -14 -5 -23 -9
-21 -4 2 -9 0 -13 -6 -10 -16 -28 -12 -21 6 4 10 2 13 -6 8 -7 -5 -8 -3 -3 6
6 9 4 11 -5 5 -9 -6 -11 -4 -5 5 5 9 4 11 -4 6 -9 -6 -9 -11 0 -22 10 -12 9
-18 -4 -32 -11 -10 -17 -12 -17 -4 0 7 6 12 13 12 9 0 8 3 -2 9 -17 11 -46 8
-46 -5 -1 -5 -4 -19 -9 -31 l-7 -23 -40 20 c-22 12 -45 18 -51 14 -6 -4 -8 -3
-5 3 10 16 -18 24 -32 10 -9 -9 -17 -6 -32 13 -11 15 -17 18 -13 8 4 -11 1
-18 -6 -18 -6 0 -8 5 -5 10 3 6 2 10 -4 10 -10 0 -9 25 2 36 4 4 16 -1 26 -11
19 -16 21 -16 45 3 14 10 22 23 18 27 -4 5 -1 5 5 1 7 -4 20 -3 30 2 19 11 46
4 37 -9z m-254 -23 c0 4 5 3 12 -4 8 -8 8 -15 -2 -27 -12 -15 -14 -15 -22 0
-5 8 -14 13 -20 9 -7 -4 -7 0 1 13 5 11 7 24 3 29 -4 5 1 1 11 -9 9 -11 17
-16 17 -11z m-45 4 c3 -6 -1 -7 -9 -4 -18 7 -21 14 -7 14 6 0 13 -4 16 -10z
m114 -19 c2 -1 -2 -8 -9 -16 -11 -13 -15 -13 -21 -3 -16 25 -12 27 30 19z
m421 -16 c-30 -17 -40 -18 -40 -4 0 5 4 8 8 5 4 -2 14 -1 22 5 8 5 20 9 25 8
6 0 -1 -6 -15 -14z m55 -15 c-10 -11 -20 -18 -23 -15 -7 6 18 35 31 35 5 0 2
-9 -8 -20z m-226 -12 c-5 -10 -12 -18 -14 -18 -2 0 -3 8 -2 18 0 10 7 19 13
19 9 0 10 -5 3 -19z"/>
<path d="M1686 823 c-4 -5 -13 -8 -18 -8 -6 0 -12 -6 -14 -13 -1 -7 0 -8 3 -2
2 5 16 -4 30 -20 20 -24 28 -28 39 -19 10 8 11 15 4 24 -5 6 -7 15 -4 18 4 4
-3 4 -16 2 -16 -3 -20 0 -16 10 6 17 3 19 -8 8z m35 -40 c7 -7 7 -13 1 -17 -5
-3 -17 3 -27 13 -15 17 -15 19 -1 17 9 -1 21 -7 27 -13z"/>
<path d="M1766 738 c3 -5 10 -6 15 -3 13 9 11 12 -6 12 -8 0 -12 -4 -9 -9z"/>
<path d="M3126 671 c-4 -5 -2 -12 4 -16 6 -4 8 -11 5 -16 -4 -5 -1 -9 4 -9 6
0 11 5 11 10 0 6 5 10 11 10 5 0 7 -4 4 -10 -4 -6 1 -7 11 -3 11 4 13 8 6 11
-7 2 -9 9 -6 14 4 7 2 8 -5 4 -6 -4 -18 -3 -26 4 -8 7 -15 7 -19 1z"/>
<path d="M2955 640 c-4 -6 -10 -8 -15 -5 -5 3 -11 2 -14 -3 -2 -4 8 -8 23 -7
19 0 27 4 24 12 -6 16 -10 16 -18 3z"/>
<path d="M3079 613 c-13 -16 -12 -17 4 -4 16 13 21 21 13 21 -2 0 -10 -8 -17
-17z"/>
<path d="M2000 670 c13 -9 13 -10 0 -10 -13 0 -13 -1 0 -10 9 -5 19 -5 26 1 7
6 17 2 29 -11 19 -21 62 -21 76 1 4 6 11 9 16 6 5 -3 10 0 10 7 0 11 -5 12
-24 3 -12 -5 -23 -15 -23 -21 0 -6 -5 -3 -11 7 -8 13 -14 15 -23 7 -10 -7 -17
-6 -26 5 -7 8 -16 13 -20 10 -5 -3 -11 -1 -15 5 -3 5 -12 10 -18 10 -7 0 -6
-4 3 -10z m90 -30 c0 -5 -5 -10 -11 -10 -5 0 -7 5 -4 10 3 6 8 10 11 10 2 0 4
-4 4 -10z"/>
<path d="M2505 613 c-17 -9 -38 -22 -47 -31 -16 -14 -20 -13 -36 1 -28 25 -34
20 -9 -6 12 -13 27 -20 32 -16 14 10 42 6 57 -9 17 -17 28 -15 28 4 0 8 5 12
11 9 6 -4 8 -13 5 -21 -7 -18 14 -30 24 -13 5 7 6 17 4 21 -3 5 2 11 10 14 12
5 13 10 5 25 -5 11 -15 16 -21 13 -6 -4 -16 0 -22 8 -10 14 -15 14 -41 1z m43
-16 c6 -5 16 -6 21 -3 5 4 8 -2 7 -11 -3 -20 -21 -28 -30 -14 -9 14 -37 2 -29
-13 3 -6 -3 -3 -14 7 -11 9 -23 14 -26 10 -4 -3 -7 -1 -7 5 0 11 13 16 33 13
4 0 7 3 7 8 0 10 19 9 38 -2z"/>
<path d="M2520 590 c-8 -5 -18 -6 -24 -3 -5 3 -6 1 -2 -5 5 -8 13 -9 25 -2 12
6 22 5 29 -2 7 -7 14 -10 16 -7 10 10 -31 27 -44 19z"/>
<path d="M2686 573 c-6 -14 -5 -15 5 -6 7 7 10 15 7 18 -3 3 -9 -2 -12 -12z"/>
<path d="M2286 578 c3 -4 9 -8 15 -8 5 0 9 4 9 8 0 5 -7 9 -15 9 -8 0 -12 -4
-9 -9z"/>
<path d="M3800 906 c0 -2 7 -7 16 -10 8 -3 12 -2 9 4 -6 10 -25 14 -25 6z"/>
<path d="M1321 884 c0 -11 3 -14 6 -6 3 7 2 16 -1 19 -3 4 -6 -2 -5 -13z"/>
<path d="M3795 880 c-3 -5 -1 -10 4 -10 6 0 11 5 11 10 0 6 -2 10 -4 10 -3 0
-8 -4 -11 -10z"/>
<path d="M1215 860 c3 -5 8 -10 11 -10 2 0 4 5 4 10 0 6 -5 10 -11 10 -5 0 -7
-4 -4 -10z"/>
<path d="M1307 859 c7 -7 15 -10 18 -7 3 3 -2 9 -12 12 -14 6 -15 5 -6 -5z"/>
<path d="M3710 860 c0 -5 5 -10 10 -10 6 0 10 5 10 10 0 6 -4 10 -10 10 -5 0
-10 -4 -10 -10z"/>
<path d="M3344 832 c2 -18 -1 -35 -7 -39 -6 -3 -7 -1 -3 5 10 17 2 15 -38 -9
-39 -23 -46 -38 -18 -35 10 0 16 -5 14 -13 -2 -11 0 -12 11 -3 8 7 18 8 22 4
5 -4 5 -1 1 6 -13 22 13 41 49 38 21 -2 33 1 32 7 -1 6 3 11 10 12 6 0 14 3
18 7 4 4 13 4 20 2 9 -4 12 1 10 13 -2 10 -4 20 -4 22 -1 2 -9 -6 -19 -17
l-19 -21 -13 24 c-10 18 -17 22 -30 15 -11 -6 -21 -5 -29 3 -8 8 -10 3 -7 -21z
m57 -6 c15 9 10 -6 -8 -24 -16 -16 -16 -16 -10 2 5 14 3 17 -8 13 -8 -4 -17
-1 -21 5 -4 6 -3 8 4 4 6 -3 14 -1 18 6 6 9 9 9 12 0 2 -7 8 -10 13 -6z m-84
-47 c-9 -6 -14 -15 -11 -21 4 -7 2 -8 -5 -4 -14 9 3 36 23 36 6 0 3 -5 -7 -11z"/>
<path d="M3822 844 c10 -10 20 -16 22 -13 3 3 -5 11 -17 18 -21 13 -21 12 -5
-5z"/>
<path d="M1260 845 c0 -2 6 -8 13 -14 10 -8 14 -7 14 2 0 8 -6 14 -14 14 -7 0
-13 -1 -13 -2z"/>
<path d="M3735 840 c-3 -5 0 -12 6 -16 8 -5 9 -3 4 6 -6 10 -4 12 8 7 9 -3 18
-3 21 1 3 4 -4 8 -14 9 -11 1 -22 -2 -25 -7z"/>
<path d="M3789 823 c-13 -16 -12 -17 4 -4 16 13 21 21 13 21 -2 0 -10 -8 -17
-17z"/>
<path d="M1430 821 c0 -6 4 -13 10 -16 6 -3 7 1 4 9 -7 18 -14 21 -14 7z"/>
<path d="M3622 806 c7 -8 15 -12 17 -11 5 6 -10 25 -20 25 -5 0 -4 -6 3 -14z"/>
<path d="M3652 800 c0 -14 2 -19 5 -12 2 6 2 18 0 25 -3 6 -5 1 -5 -13z"/>
<path d="M3712 806 c7 -8 15 -12 17 -11 5 6 -10 25 -20 25 -5 0 -4 -6 3 -14z"/>
<path d="M1270 798 c0 -4 4 -8 9 -8 6 0 12 4 15 8 3 5 -1 9 -9 9 -8 0 -15 -4
-15 -9z"/>
<path d="M1375 801 c-3 -5 -2 -12 3 -15 5 -3 9 1 9 9 0 17 -3 19 -12 6z"/>
<path d="M3795 800 c-3 -5 -1 -10 4 -10 6 0 11 5 11 10 0 6 -2 10 -4 10 -3 0
-8 -4 -11 -10z"/>
<path d="M3675 789 c-4 -6 -5 -12 -2 -15 2 -3 7 2 10 11 7 17 1 20 -8 4z"/>
<path d="M1425 780 c-3 -6 1 -7 9 -4 18 7 21 14 7 14 -6 0 -13 -4 -16 -10z"/>
<path d="M1540 779 c0 -5 5 -7 11 -3 9 5 10 -1 5 -22 -5 -24 -4 -26 5 -11 6
10 8 25 5 33 -6 16 -26 19 -26 3z"/>
<path d="M3700 786 c0 -2 8 -10 18 -17 15 -13 16 -12 3 4 -13 16 -21 21 -21
13z"/>
<path d="M1517 767 c-3 -8 1 -14 8 -14 7 0 11 6 8 14 -3 7 -6 13 -8 13 -2 0
-5 -6 -8 -13z"/>
<path d="M3915 769 c-4 -6 -5 -12 -2 -15 2 -3 7 2 10 11 7 17 1 20 -8 4z"/>
<path d="M1346 762 c-3 -5 1 -9 9 -9 8 0 12 4 9 9 -3 4 -7 8 -9 8 -2 0 -6 -4
-9 -8z"/>
<path d="M3548 753 c7 -3 16 -2 19 1 4 3 -2 6 -13 5 -11 0 -14 -3 -6 -6z"/>
<path d="M3579 748 c-6 -21 -6 -39 1 -43 5 -3 7 3 6 12 -2 10 2 21 8 25 8 5 7
8 -1 8 -7 0 -13 -1 -14 -2z"/>
<path d="M3735 740 c3 -5 8 -10 11 -10 2 0 4 5 4 10 0 6 -5 10 -11 10 -5 0 -7
-4 -4 -10z"/>
<path d="M1664 732 c-12 -8 -14 -63 -2 -56 5 3 5 10 2 16 -5 8 -1 9 10 5 10
-4 20 -7 22 -7 3 0 2 -4 -1 -10 -3 -5 -1 -10 4 -10 20 0 11 19 -15 33 -19 10
-23 16 -14 22 7 4 16 2 22 -6 8 -12 9 -12 6 0 -5 18 -19 23 -34 13z"/>
<path d="M3522 724 c-7 -8 -8 -14 -3 -14 10 0 25 19 20 25 -2 1 -10 -3 -17
-11z"/>
<path d="M1430 719 c0 -5 5 -7 10 -4 6 3 10 8 10 11 0 2 -4 4 -10 4 -5 0 -10
-5 -10 -11z"/>
<path d="M1490 721 c0 -6 4 -13 10 -16 6 -3 7 1 4 9 -7 18 -14 21 -14 7z"/>
<path d="M1533 715 c0 -8 4 -12 9 -9 5 3 6 10 3 15 -9 13 -12 11 -12 -6z"/>
<path d="M1610 720 c0 -5 5 -10 10 -10 6 0 10 5 10 10 0 6 -4 10 -10 10 -5 0
-10 -4 -10 -10z"/>
<path d="M3604 722 c4 -3 14 -7 22 -8 9 -1 13 0 10 4 -4 3 -14 7 -22 8 -9 1
-13 0 -10 -4z"/>
<path d="M3693 711 c0 -11 5 -18 9 -15 4 3 5 11 1 19 -7 21 -12 19 -10 -4z"/>
<path d="M3494 702 c3 -5 1 -12 -6 -14 -8 -3 -9 -6 -1 -11 6 -4 13 0 17 8 3 8
0 17 -6 21 -6 4 -8 3 -4 -4z"/>
<path d="M3539 708 c-8 -27 -4 -35 17 -34 13 1 26 4 29 8 3 3 -5 5 -17 4 -14
0 -22 4 -20 12 2 10 -6 19 -9 10z"/>
<path d="M1626 685 c-9 -26 -7 -32 5 -12 6 10 9 21 6 23 -2 3 -7 -2 -11 -11z"/>
<path d="M2316 684 c-10 -10 -14 -24 -11 -38 5 -16 4 -18 -4 -6 -5 8 -13 11
-17 7 -9 -8 -1 -18 18 -21 7 -1 18 -5 24 -8 17 -11 47 -2 50 15 3 21 -5 21
-27 1 -16 -14 -18 -14 -28 3 -6 12 -6 24 0 34 8 12 10 12 8 -1 -3 -27 1 -41
10 -36 8 5 7 53 -2 62 -3 3 -12 -2 -21 -12z"/>
<path d="M1536 678 c3 -5 10 -6 15 -3 13 9 11 12 -6 12 -8 0 -12 -4 -9 -9z"/>
<path d="M3450 680 c0 -5 5 -10 10 -10 6 0 10 5 10 10 0 6 -4 10 -10 10 -5 0
-10 -4 -10 -10z"/>
<path d="M3610 679 c0 -5 5 -7 10 -4 6 3 10 8 10 11 0 2 -4 4 -10 4 -5 0 -10
-5 -10 -11z"/>
<path d="M2993 665 c0 -8 4 -12 9 -9 5 3 6 10 3 15 -9 13 -12 11 -12 -6z"/>
<path d="M1675 660 c6 -10 4 -12 -11 -6 -15 6 -17 5 -6 -5 9 -9 15 -10 23 -2
8 8 7 13 -2 18 -8 6 -10 4 -4 -5z"/>
<path d="M3024 653 c3 -21 19 -20 22 2 1 8 -4 15 -11 15 -7 0 -12 -8 -11 -17z"/>
<path d="M3415 659 c-4 -6 -5 -12 -2 -15 2 -3 7 2 10 11 7 17 1 20 -8 4z"/>
<path d="M1716 645 c3 -8 10 -13 14 -10 5 3 11 -1 13 -7 4 -10 6 -10 6 -1 1 7
-8 17 -19 23 -16 9 -18 8 -14 -5z"/>
<path d="M1770 651 c0 -10 19 -25 25 -20 1 2 -3 10 -11 17 -8 7 -14 8 -14 3z"/>
<path d="M2784 648 c-4 -6 -3 -8 4 -4 6 3 14 2 17 -4 4 -6 3 -10 -2 -9 -18 3
-36 -1 -30 -8 4 -3 2 -11 -3 -18 -7 -8 -5 -12 5 -12 7 0 13 5 12 11 -1 6 5 11
13 11 21 1 40 14 40 28 0 8 -3 8 -9 -1 -7 -11 -9 -11 -14 2 -7 19 -23 21 -33
4z"/>
<path d="M3320 651 c0 -5 -3 -16 -6 -25 -3 -9 -2 -16 3 -16 5 0 10 11 11 25 1
14 0 25 -3 25 -3 0 -5 -4 -5 -9z"/>
<path d="M1579 633 c-13 -16 -12 -17 4 -4 16 13 21 21 13 21 -2 0 -10 -8 -17
-17z"/>
<path d="M1610 641 c0 -6 4 -13 10 -16 6 -3 7 1 4 9 -7 18 -14 21 -14 7z"/>
<path d="M1823 635 c7 -7 14 -9 15 -4 2 5 8 9 13 9 4 0 6 -8 2 -17 -5 -14 -3
-15 7 -6 17 16 5 31 -24 31 -19 0 -22 -3 -13 -13z"/>
<path d="M3559 633 c-13 -16 -12 -17 4 -4 16 13 21 21 13 21 -2 0 -10 -8 -17
-17z"/>
<path d="M3360 631 c0 -6 4 -13 10 -16 6 -3 7 1 4 9 -7 18 -14 21 -14 7z"/>
<path d="M1887 610 c3 -11 9 -20 15 -20 5 0 4 9 -2 20 -6 11 -12 20 -14 20 -2
0 -2 -9 1 -20z"/>
<path d="M3400 620 c-9 -6 -10 -10 -3 -10 6 0 15 5 18 10 8 12 4 12 -15 0z"/>
<path d="M1990 610 c0 -5 5 -10 10 -10 6 0 10 5 10 10 0 6 -4 10 -10 10 -5 0
-10 -4 -10 -10z"/>
<path d="M3201 611 c-10 -7 -11 -12 -1 -27 9 -16 11 -16 6 -2 -3 10 2 22 12
27 9 6 13 10 7 11 -5 0 -16 -4 -24 -9z"/>
<path d="M1720 605 c0 -2 6 -8 13 -14 10 -8 14 -7 14 2 0 8 -6 14 -14 14 -7 0
-13 -1 -13 -2z"/>
<path d="M3232 601 c-11 -6 -10 -10 4 -15 9 -3 19 -4 22 -1 3 3 0 5 -7 5 -7 0
-9 5 -6 10 7 12 4 12 -13 1z"/>
<path d="M3347 595 c3 -8 9 -12 14 -9 12 7 11 11 -5 17 -10 4 -13 1 -9 -8z"/>
<path d="M3430 606 c0 -2 7 -7 16 -10 8 -3 12 -2 9 4 -6 10 -25 14 -25 6z"/>
<path d="M1830 590 c-11 -7 -11 -10 -2 -10 7 0 10 -4 7 -10 -4 -6 1 -7 11 -3
11 4 13 8 6 11 -7 2 -10 8 -6 13 7 11 3 11 -16 -1z"/>
<path d="M3310 591 c0 -5 7 -12 16 -15 14 -5 15 -4 4 9 -14 17 -20 19 -20 6z"/>
<path d="M3182 570 c8 -14 14 -33 12 -43 -1 -11 0 -16 4 -13 13 13 9 33 -10
57 l-20 24 14 -25z"/>
<path d="M2219 563 c-10 -11 -10 -14 -1 -9 6 4 12 2 12 -3 0 -6 3 -10 8 -9 4
0 15 -2 24 -6 16 -7 16 -10 1 -34 l-17 -27 25 25 25 25 -33 21 c-18 11 -30 24
-26 27 3 4 4 7 1 7 -3 0 -12 -8 -19 -17z"/>
<path d="M1695 560 c-3 -5 -1 -10 4 -10 6 0 11 5 11 10 0 6 -2 10 -4 10 -3 0
-8 -4 -11 -10z"/>
<path d="M2036 555 c4 -8 8 -15 10 -15 2 0 4 7 4 15 0 8 -4 15 -10 15 -5 0 -7
-7 -4 -15z"/>
<path d="M3073 552 c-17 -13 -20 -21 -12 -32 9 -13 10 -13 6 0 -2 8 8 23 22
32 14 10 22 18 16 18 -5 0 -20 -8 -32 -18z"/>
<path d="M3107 548 c-16 -12 -15 -13 7 -13 15 0 22 5 19 13 -3 6 -6 12 -7 12
-1 0 -10 -6 -19 -12z"/>
<path d="M1836 538 c3 -5 10 -6 15 -3 13 9 11 12 -6 12 -8 0 -12 -4 -9 -9z"/>
<path d="M2019 548 c0 -2 -2 -13 -3 -25 -2 -19 0 -21 12 -11 9 8 10 14 3 16
-6 2 -9 8 -5 13 3 5 3 9 0 9 -3 0 -6 -1 -7 -2z"/>
<path d="M2168 523 c5 -21 7 -23 10 -9 2 10 0 22 -6 28 -6 6 -7 0 -4 -19z"/>
<path d="M2991 527 c-13 -21 -12 -21 5 -5 10 10 16 20 13 22 -3 3 -11 -5 -18
-17z"/>
<path d="M3156 542 c-3 -5 1 -9 9 -9 8 0 12 4 9 9 -3 4 -7 8 -9 8 -2 0 -6 -4
-9 -8z"/>
<path d="M2198 533 c7 -3 16 -2 19 1 4 3 -2 6 -13 5 -11 0 -14 -3 -6 -6z"/>
<path d="M3229 523 c-13 -16 -12 -17 4 -4 16 13 21 21 13 21 -2 0 -10 -8 -17
-17z"/>
<path d="M2108 518 c5 -5 16 -8 23 -6 8 3 3 7 -10 11 -17 4 -21 3 -13 -5z"/>
<path d="M2233 523 c4 -3 -1 -12 -11 -20 -15 -13 -15 -13 6 -3 23 11 30 30 10
30 -6 0 -8 -3 -5 -7z"/>
<path d="M2852 513 c3 -18 45 -26 55 -10 3 6 1 7 -5 3 -7 -4 -12 -2 -12 5 0 8
-5 7 -17 -2 -15 -12 -16 -12 -10 4 3 9 2 17 -4 17 -6 0 -9 -8 -7 -17z"/>
<path d="M3015 521 c-3 -5 0 -13 6 -17 8 -5 9 -3 4 6 -6 10 -4 12 9 7 10 -4
15 -3 11 3 -8 13 -22 13 -30 1z"/>
<path d="M3295 520 c3 -5 8 -10 11 -10 2 0 4 5 4 10 0 6 -5 10 -11 10 -5 0 -7
-4 -4 -10z"/>
<path d="M2195 509 c-4 -6 -5 -12 -2 -15 2 -3 7 2 10 11 7 17 1 20 -8 4z"/>
<path d="M2957 507 c-3 -8 1 -14 8 -14 7 0 11 6 8 14 -3 7 -6 13 -8 13 -2 0
-5 -6 -8 -13z"/>
<path d="M2073 486 c-2 -19 -1 -19 8 -3 6 9 16 14 22 11 7 -4 8 -3 4 1 -15 17
-33 12 -34 -9z"/>
<path d="M2284 499 c-4 -7 -3 -9 4 -5 5 3 13 0 15 -6 4 -9 6 -10 6 -1 1 17
-16 25 -25 12z"/>
<path d="M2833 498 c7 -21 4 -22 -26 -7 -20 9 -20 9 -5 -4 10 -8 14 -18 10
-22 -4 -5 -1 -5 6 -1 7 4 20 2 29 -6 14 -11 16 -11 8 2 -5 8 -10 21 -11 28 -2
8 -6 17 -10 20 -4 4 -4 -1 -1 -10z"/>
<path d="M3110 496 c7 -7 13 -7 20 0 6 6 3 10 -10 10 -13 0 -16 -4 -10 -10z"/>
<path d="M2521 484 c0 -11 3 -14 6 -6 3 7 2 16 -1 19 -3 4 -6 -2 -5 -13z"/>
<path d="M2641 484 c0 -11 3 -14 6 -6 3 7 2 16 -1 19 -3 4 -6 -2 -5 -13z"/>
<path d="M2915 489 c-11 -16 -1 -19 13 -3 7 8 8 14 3 14 -5 0 -13 -5 -16 -11z"/>
<path d="M2990 497 c0 -2 6 -10 14 -16 11 -9 16 -9 22 1 4 7 4 10 -1 6 -4 -4
-14 -3 -22 3 -7 6 -13 9 -13 6z"/>
<path d="M3044 478 l-19 -23 23 19 c12 11 22 21 22 23 0 8 -8 2 -26 -19z"/>
<path d="M1996 478 c3 -5 10 -6 15 -3 13 9 11 12 -6 12 -8 0 -12 -4 -9 -9z"/>
<path d="M2154 483 c3 -4 0 -13 -6 -22 -10 -12 -7 -12 8 2 11 9 23 16 25 15 2
-2 3 -1 1 1 -1 3 -10 6 -18 7 -9 1 -13 0 -10 -3z"/>
<path d="M2320 486 c0 -2 8 -10 18 -17 15 -13 16 -12 3 4 -13 16 -21 21 -21
13z"/>
<path d="M2435 480 c-3 -6 1 -7 9 -4 18 7 21 14 7 14 -6 0 -13 -4 -16 -10z"/>
<path d="M2585 480 c-3 -6 1 -7 9 -4 18 7 21 14 7 14 -6 0 -13 -4 -16 -10z"/>
<path d="M3076 482 c-3 -5 1 -9 9 -9 8 0 12 4 9 9 -3 4 -7 8 -9 8 -2 0 -6 -4
-9 -8z"/>
<path d="M2113 465 c0 -8 4 -12 9 -9 5 3 6 10 3 15 -9 13 -12 11 -12 -6z"/>
<path d="M2556 471 c-3 -5 1 -11 9 -14 9 -4 12 -1 8 9 -6 16 -10 17 -17 5z"/>
<path d="M2224 462 c4 -3 14 -7 22 -8 9 -1 13 0 10 4 -4 3 -14 7 -22 8 -9 1
-13 0 -10 -4z"/>
<path d="M2675 461 c6 -10 4 -13 -6 -9 -10 4 -15 -1 -15 -13 0 -12 4 -15 12
-9 6 6 13 7 17 4 3 -3 4 1 3 10 -1 8 -6 19 -11 23 -4 5 -5 2 0 -6z"/>
<path d="M2880 460 c-9 -6 -10 -10 -3 -10 6 0 15 5 18 10 8 12 4 12 -15 0z"/>
<path d="M3154 462 c4 -3 14 -7 22 -8 9 -1 13 0 10 4 -4 3 -14 7 -22 8 -9 1
-13 0 -10 -4z"/>
<path d="M2298 450 c13 -15 65 -23 57 -9 -3 4 -13 6 -23 4 -9 -1 -24 2 -32 8
-12 9 -13 9 -2 -3z"/>
<path d="M2620 450 c0 -5 -7 -7 -15 -4 -8 4 -15 1 -15 -7 0 -7 3 -9 7 -6 3 4
11 3 17 -3 8 -6 12 -3 13 11 1 10 0 19 -3 19 -2 0 -4 -4 -4 -10z"/>
<path d="M2775 450 c-4 -6 -12 -7 -18 -4 -7 4 -8 3 -4 -1 13 -15 34 -14 34 1
0 17 -4 18 -12 4z"/>
<path d="M1996 438 c3 -5 10 -6 15 -3 13 9 11 12 -6 12 -8 0 -12 -4 -9 -9z"/>
<path d="M2513 431 c0 -11 5 -18 9 -15 4 3 5 11 1 19 -7 21 -12 19 -10 -4z"/>
<path d="M2813 433 c0 -9 4 -10 14 -2 7 6 13 12 13 14 0 1 -6 2 -13 2 -8 0
-14 -6 -14 -14z"/>
<path d="M2173 425 c0 -8 4 -12 9 -9 5 3 6 10 3 15 -9 13 -12 11 -12 -6z"/>
<path d="M2747 419 c7 -7 15 -10 18 -7 3 3 -2 9 -12 12 -14 6 -15 5 -6 -5z"/>
<path d="M2695 400 c3 -5 8 -10 11 -10 2 0 4 5 4 10 0 6 -5 10 -11 10 -5 0 -7
-4 -4 -10z"/>
<path d="M2896 402 c-3 -5 1 -9 9 -9 8 0 12 4 9 9 -3 4 -7 8 -9 8 -2 0 -6 -4
-9 -8z"/>
<path d="M2455 391 c-3 -5 -2 -12 3 -15 5 -3 9 1 9 9 0 17 -3 19 -12 6z"/>
<path d="M2554 382 c4 -3 14 -7 22 -8 9 -1 13 0 10 4 -4 3 -14 7 -22 8 -9 1
-13 0 -10 -4z"/>
</g>
</svg>
